<svg xmlns="http://www.w3.org/2000/svg" id="uuid-d9b6ccba-380c-435b-aa70-774ee77bd567" data-name="Illustration" viewBox="0 0 3000 3000">
  <defs>
    <style>
      .uuid-3ebeb868-46ec-4d9d-8b28-47025970b5ff, .uuid-e1e23385-dd6d-454e-a1a7-15e67d98c74d, .uuid-a171388b-811a-4865-8845-775ad09d88f9, .uuid-090eaf5d-a619-4bb9-9557-2373e0600a00, .uuid-44a24c0f-690b-4fe1-964e-ff56d34799c9 {
        opacity: .5;
      }

      .uuid-3c90c158-aa56-43e4-bf40-0bbcf7553e15 {
        fill: #cee6fc;
      }

      .uuid-3c90c158-aa56-43e4-bf40-0bbcf7553e15, .uuid-190357c8-d3cf-4530-ad58-aab9beddf82f, .uuid-e1e23385-dd6d-454e-a1a7-15e67d98c74d, .uuid-a171388b-811a-4865-8845-775ad09d88f9, .uuid-f8d9ecb6-7e73-40a0-98ff-ed50cc9507c3, .uuid-2d720b60-1da7-41a4-8962-c180bffc3290, .uuid-bcc8c083-70c8-41e7-bd9e-0ca630d95238, .uuid-090eaf5d-a619-4bb9-9557-2373e0600a00, .uuid-a2d33194-46a0-444e-b6b4-70d71d3095c8, .uuid-0178d8d5-04b5-439d-9237-b1247079544b, .uuid-957b737e-d366-4b47-b610-c30cda853008, .uuid-44a24c0f-690b-4fe1-964e-ff56d34799c9, .uuid-67139ae8-748f-42d7-97a3-eed7cdfee0ea, .uuid-171d1d5f-1c25-4e6b-b439-724d0f2b2435 {
        stroke-width: 0px;
      }

      .uuid-190357c8-d3cf-4530-ad58-aab9beddf82f {
        fill: #383b4b;
      }

      .uuid-5779f7dc-29da-465f-8c80-eda24fa2c0f7 {
        opacity: .2;
      }

      .uuid-e1e23385-dd6d-454e-a1a7-15e67d98c74d, .uuid-67139ae8-748f-42d7-97a3-eed7cdfee0ea {
        fill: #87bdf7;
      }

      .uuid-a171388b-811a-4865-8845-775ad09d88f9, .uuid-a2d33194-46a0-444e-b6b4-70d71d3095c8 {
        fill: #202234;
      }

      .uuid-f8d9ecb6-7e73-40a0-98ff-ed50cc9507c3 {
        fill: #ddae9f;
      }

      .uuid-2d720b60-1da7-41a4-8962-c180bffc3290, .uuid-44a24c0f-690b-4fe1-964e-ff56d34799c9 {
        fill: #abd1fa;
      }

      .uuid-bcc8c083-70c8-41e7-bd9e-0ca630d95238 {
        fill: #f2faff;
      }

      .uuid-090eaf5d-a619-4bb9-9557-2373e0600a00, .uuid-0178d8d5-04b5-439d-9237-b1247079544b {
        fill: #ce9c8e;
      }

      .uuid-957b737e-d366-4b47-b610-c30cda853008 {
        fill: #fff;
      }

      .uuid-171d1d5f-1c25-4e6b-b439-724d0f2b2435 {
        fill: #64a8f5;
      }
    </style>
  </defs>
  <rect class="uuid-957b737e-d366-4b47-b610-c30cda853008" width="3000" height="3000"/>
  <g id="uuid-e0090920-94ab-4579-b28e-646259b5ee81" data-name="Business Screen">
    <path class="uuid-2d720b60-1da7-41a4-8962-c180bffc3290" d="m1706.87,660.61v-57.52l-44.96-4.13c-4.13-19.91-12.01-38.4-22.77-54.84l28.85-34.7-.07-.07.07-.09-40.55-40.54-34.75,28.91c-4.19-2.74-8.52-5.31-12.97-7.66-5.16-2.75-10.52-5.22-15.98-7.4-8.35-3.29-17.01-5.91-25.97-7.77l-.7-7.62h-.02l-3.4-37.17h-57.37l-3.4,37.17h-.02l-.68,7.62c-19.45,4.04-37.52,11.64-53.67,22.02-.44.26-.86.53-1.27.81l-34.77-28.91-40.53,40.54.07.09-.07.07,28.85,34.7c-10.76,16.45-18.61,34.93-22.79,54.84l-44.91,4.13v57.52l44.91,4.13c4.17,19.91,12.03,38.4,22.79,54.84l-28.85,34.71.07.06-.07.09,40.53,40.55,34.77-28.91c.42.28.84.55,1.27.81,16.16,10.38,34.23,17.98,53.67,22.02l.68,7.62h.02l3.4,37.17h57.37l3.4-37.17h.02l.7-7.62c8.96-1.86,17.63-4.48,25.97-7.77,5.46-2.17,10.82-4.65,15.98-7.42,4.46-2.33,8.78-4.89,12.97-7.64l34.75,28.91,40.55-40.55-.07-.09.07-.06-28.85-34.71c10.76-16.44,18.64-34.93,22.77-54.84l44.96-4.13Zm-111.21-26.17c-1.38,48.91-41.45,88.14-90.71,88.14s-90.76-40.62-90.76-90.73,39.26-89.33,88.17-90.71c.86,0,1.73-.02,2.59-.02,50.12,0,90.73,40.61,90.73,90.73,0,.86-.02,1.73-.02,2.59Z"/>
    <path class="uuid-2d720b60-1da7-41a4-8962-c180bffc3290" d="m2385.4,1963.31v-58.33l-45.6-4.18c-4.18-20.19-12.18-38.94-23.09-55.62l29.26-35.2-.07-.07.07-.09-41.13-41.12-35.24,29.32c-4.26-2.78-8.64-5.39-13.16-7.77-5.23-2.78-10.67-5.3-16.21-7.5-8.46-3.34-17.26-5.99-26.34-7.88l-.72-7.73h-.02l-3.45-37.69h-58.18l-3.45,37.69h-.02l-.69,7.73c-19.73,4.1-38.06,11.8-54.44,22.34-.44.27-.87.53-1.29.82l-35.27-29.32-41.1,41.12.07.09-.07.07,29.26,35.2c-10.91,16.68-18.88,35.43-23.11,55.62l-45.55,4.18v58.33l45.55,4.19c4.23,20.2,12.2,38.94,23.11,55.62l-29.26,35.2.07.07-.07.09,41.1,41.13,35.27-29.33c.42.29.84.56,1.29.82,16.39,10.53,34.71,18.24,54.44,22.34l.69,7.72h.02l3.45,37.7h58.18l3.45-37.7h.02l.72-7.72c9.08-1.89,17.88-4.54,26.34-7.88,5.54-2.2,10.98-4.72,16.21-7.52,4.52-2.36,8.9-4.97,13.16-7.75l35.24,29.33,41.13-41.13-.07-.09.07-.07-29.26-35.2c10.91-16.68,18.91-35.42,23.09-55.62l45.6-4.19Zm-112.8-26.54c-1.4,49.61-42.04,89.4-92,89.4s-92.05-41.19-92.05-92.02,39.81-90.6,89.42-92.01c.87,0,1.76-.02,2.63-.02,50.83,0,92.03,41.19,92.03,92.03,0,.86-.03,1.76-.03,2.63Z"/>
    <g>
      <path class="uuid-3c90c158-aa56-43e4-bf40-0bbcf7553e15" d="m2514.61,583.68H485.38c-33.99,0-61.64,32.49-61.64,72.42v1203.16c0,39.93,27.66,72.42,61.65,72.42h2029.23c33.99,0,61.64-32.49,61.64-72.42V656.1c0-39.93-27.65-72.42-61.65-72.42Z"/>
      <g class="uuid-5779f7dc-29da-465f-8c80-eda24fa2c0f7">
        <rect class="uuid-2d720b60-1da7-41a4-8962-c180bffc3290" x="689.4" y="1007.82" width="12.92" height="923.86"/>
        <rect class="uuid-2d720b60-1da7-41a4-8962-c180bffc3290" x="1091.47" y="1007.82" width="12.92" height="923.86"/>
        <rect class="uuid-2d720b60-1da7-41a4-8962-c180bffc3290" x="1493.54" y="583.68" width="12.92" height="1348"/>
        <rect class="uuid-2d720b60-1da7-41a4-8962-c180bffc3290" x="1895.61" y="583.68" width="12.92" height="1348"/>
        <rect class="uuid-2d720b60-1da7-41a4-8962-c180bffc3290" x="2297.68" y="583.68" width="12.92" height="1348"/>
      </g>
    </g>
    <g>
      <path class="uuid-957b737e-d366-4b47-b610-c30cda853008" d="m689.39,1616.88c-4.39,0-8.34-3.04-9.34-7.5-1.15-5.16,2.11-10.28,7.27-11.43l404.86-90.06,393.47-571.13c1.61-2.33,4.16-3.83,6.97-4.1l400.77-38.66,407.31-156.67c4.96-1.91,10.48.57,12.38,5.5,1.9,4.94-.56,10.48-5.5,12.38l-408.53,157.14c-.81.31-1.66.51-2.52.6l-397.64,38.35-393.08,570.56c-1.37,1.99-3.45,3.39-5.81,3.92l-408.53,90.88c-.7.16-1.4.23-2.09.23Z"/>
      <circle class="uuid-171d1d5f-1c25-4e6b-b439-724d0f2b2435" cx="694.44" cy="1605.85" r="23.29" transform="translate(-561.67 387.99) rotate(-22.5)"/>
      <circle class="uuid-171d1d5f-1c25-4e6b-b439-724d0f2b2435" cx="1097.93" cy="1520.9" r="23.29" transform="translate(-579.2 2361.03) rotate(-80.78)"/>
      <path class="uuid-171d1d5f-1c25-4e6b-b439-724d0f2b2435" d="m1523.29,942.19c0,12.86-10.43,23.29-23.29,23.29s-23.29-10.43-23.29-23.29,10.43-23.29,23.29-23.29,23.29,10.43,23.29,23.29Z"/>
      <circle class="uuid-171d1d5f-1c25-4e6b-b439-724d0f2b2435" cx="1897.24" cy="898.29" r="23.29" transform="translate(-79.5 1604.66) rotate(-45)"/>
      <path class="uuid-171d1d5f-1c25-4e6b-b439-724d0f2b2435" d="m2333.89,746.26c0,12.86-10.43,23.29-23.29,23.29s-23.29-10.43-23.29-23.29,10.43-23.29,23.29-23.29,23.29,10.43,23.29,23.29Z"/>
    </g>
    <g>
      <g class="uuid-3ebeb868-46ec-4d9d-8b28-47025970b5ff">
        <path class="uuid-2d720b60-1da7-41a4-8962-c180bffc3290" d="m2576.26,894.05h-393.97c-9.05,0-16.4,7.44-16.4,16.61v626.98c0,9.17,7.34,16.61,16.4,16.61h393.97v-660.2Z"/>
      </g>
      <path class="uuid-bcc8c083-70c8-41e7-bd9e-0ca630d95238" d="m2635.59,855.33h-217.91l-46.6-56.02-23.61,56.02h-181.73c-9.05,0-16.4,7.44-16.4,16.61v626.98c0,9.17,7.34,16.61,16.4,16.61h469.84c9.05,0,16.4-7.44,16.4-16.61v-626.98c0-9.17-7.34-16.61-16.4-16.61Z"/>
      <g>
        <g>
          <path class="uuid-3c90c158-aa56-43e4-bf40-0bbcf7553e15" d="m2385.68,985.87v134.83l-31.9,130.97c-58.18-14.38-101.21-67.63-101.21-130.97,0-74.5,59.56-134.83,133.1-134.83Z"/>
          <path class="uuid-2d720b60-1da7-41a4-8962-c180bffc3290" d="m2494.78,1198.65c-24.09,34.83-64,57.52-109.11,57.52-11.04,0-21.76-1.4-31.95-3.98l31.95-131.16,109.11,77.62Z"/>
          <path class="uuid-67139ae8-748f-42d7-97a3-eed7cdfee0ea" d="m2552.72,1113.24c0,25.61-6.07,49.71-16.73,71.05-3.35,6.78-7.19,13.43-11.65,19.58l-127.39-90.63v-157.66c86,0,155.77,70.55,155.77,157.66Z"/>
        </g>
        <g>
          <path class="uuid-67139ae8-748f-42d7-97a3-eed7cdfee0ea" d="m2384.1,1337.69h-126.51c-4.96,0-8.98-4.07-8.98-9.1s4.02-9.09,8.98-9.09h126.51c4.96,0,8.97,4.07,8.97,9.09s-4.01,9.1-8.97,9.1Z"/>
          <g class="uuid-3ebeb868-46ec-4d9d-8b28-47025970b5ff">
            <path class="uuid-67139ae8-748f-42d7-97a3-eed7cdfee0ea" d="m2536.31,1337.69h-96.74c-4.96,0-8.98-4.07-8.98-9.09s4.01-9.09,8.98-9.09h96.74c4.96,0,8.98,4.07,8.98,9.09s-4.01,9.09-8.98,9.09Z"/>
          </g>
          <path class="uuid-67139ae8-748f-42d7-97a3-eed7cdfee0ea" d="m2408.7,1418.63h-151.11c-4.96,0-8.98-4.07-8.98-9.09s4.02-9.1,8.98-9.1h151.11c4.96,0,8.98,4.07,8.98,9.1s-4.01,9.09-8.98,9.09Z"/>
          <g class="uuid-3ebeb868-46ec-4d9d-8b28-47025970b5ff">
            <path class="uuid-67139ae8-748f-42d7-97a3-eed7cdfee0ea" d="m2536.31,1378.15h-278.71c-4.96,0-8.98-4.07-8.98-9.09s4.02-9.09,8.98-9.09h278.71c4.96,0,8.98,4.07,8.98,9.09s-4.01,9.09-8.98,9.09Z"/>
          </g>
        </g>
      </g>
    </g>
    <g>
      <g>
        <path class="uuid-bcc8c083-70c8-41e7-bd9e-0ca630d95238" d="m670.2,778.67c0,15.52-11.74,23.22-22.14,24.55-3.91.48-6.49.48-11.4.48h-30.76v-83.02h31.65c4.14,0,5.93,0,9.84.48,12.75,1.69,19.91,10.35,19.91,21.18,0,7.58-3.69,13.36-11.29,16.25,9.73,3.01,14.2,9.98,14.2,20.09Zm-44.17-25.26h9.06c1.79,0,3.47-.12,4.92-.36,3.69-.6,6.26-2.65,6.26-7.58s-2.35-6.98-6.15-7.58c-1.45-.24-3.24-.36-5.03-.36h-9.06v15.88Zm23.15,24.54c0-5.54-3.69-8.42-7.83-8.78-1.45-.12-3.24-.12-5.03-.12h-10.29v17.81h10.85c1.79,0,3.58,0,5.03-.12,3.58-.24,7.27-3.37,7.27-8.78Z"/>
        <path class="uuid-bcc8c083-70c8-41e7-bd9e-0ca630d95238" d="m749.13,767.24c0,4.21,0,6.74-.33,11.67-.9,13.96-10.07,26.47-33.89,26.47s-32.99-12.51-33.88-26.47c-.33-4.93-.33-7.46-.33-11.67v-46.56h20.13v50.53c0,2.29,0,3.49.11,4.93.56,8.66,5.14,13.36,13.98,13.36s13.42-4.69,13.98-13.36c.11-1.44.11-2.65.11-4.93v-50.53h20.13v46.56Z"/>
        <path class="uuid-bcc8c083-70c8-41e7-bd9e-0ca630d95238" d="m819.9,746.31h-20.13c-.9-6.86-4.25-11.43-10.85-11.43-4.59,0-7.72,2.41-7.72,7.46s3.58,8.54,16.32,11.79c17,4.33,23.93,13.48,23.93,26.23,0,16.6-14.76,25.03-30.31,25.03-19.57,0-32.77-8.43-34-27.07h20.13c1.34,7.82,7.27,11.19,13.31,11.19,5.59,0,9.84-3.13,9.84-7.7,0-4.33-2.91-8.06-12.41-10.59-17.55-4.69-27.84-10.59-27.84-27.19s13.87-25.03,29.19-25.03c20.35,0,28.85,11.91,30.53,27.32Z"/>
        <path class="uuid-bcc8c083-70c8-41e7-bd9e-0ca630d95238" d="m832.3,803.7v-83.02h20.13v83.02h-20.13Z"/>
        <path class="uuid-bcc8c083-70c8-41e7-bd9e-0ca630d95238" d="m914.93,803.7l-28.07-54.87c.67,8.42.67,15.76.67,20.57v34.29h-20.13v-83.02h25.05l29.3,57.27c-.56-8.42-.67-16.97-.67-21.78v-35.49h20.13v83.02h-26.28Z"/>
        <path class="uuid-bcc8c083-70c8-41e7-bd9e-0ca630d95238" d="m1015.33,803.7h-59.16v-83.02h58.04v16.84h-37.91v16.12h35.67v16.84h-35.67v16.36h39.03v16.85Z"/>
        <path class="uuid-bcc8c083-70c8-41e7-bd9e-0ca630d95238" d="m1085.2,746.31h-20.13c-.9-6.86-4.25-11.43-10.85-11.43-4.59,0-7.72,2.41-7.72,7.46s3.58,8.54,16.33,11.79c17,4.33,23.93,13.48,23.93,26.23,0,16.6-14.76,25.03-30.31,25.03-19.57,0-32.76-8.43-33.99-27.07h20.13c1.34,7.82,7.27,11.19,13.31,11.19,5.59,0,9.84-3.13,9.84-7.7,0-4.33-2.91-8.06-12.41-10.59-17.56-4.69-27.85-10.59-27.85-27.19s13.87-25.03,29.19-25.03c20.35,0,28.85,11.91,30.53,27.32Z"/>
        <path class="uuid-bcc8c083-70c8-41e7-bd9e-0ca630d95238" d="m1155.19,746.31h-20.13c-.9-6.86-4.25-11.43-10.84-11.43-4.59,0-7.72,2.41-7.72,7.46s3.58,8.54,16.33,11.79c17,4.33,23.93,13.48,23.93,26.23,0,16.6-14.76,25.03-30.31,25.03-19.57,0-32.77-8.43-34-27.07h20.13c1.34,7.82,7.27,11.19,13.31,11.19,5.59,0,9.84-3.13,9.84-7.7,0-4.33-2.91-8.06-12.41-10.59-17.56-4.69-27.85-10.59-27.85-27.19s13.87-25.03,29.19-25.03c20.36,0,28.85,11.91,30.53,27.32Z"/>
      </g>
      <g>
        <path class="uuid-bcc8c083-70c8-41e7-bd9e-0ca630d95238" d="m653.21,857.66c0,12.59-7.83,19.16-16.43,20.27-3.18.37-5.59.46-9.29.46h-6.88v22.4h-15.48v-63.86h22.37c3.7,0,6.11.09,9.29.46,8.6,1.11,16.43,7.68,16.43,20.27Zm-16.17,0c0-4.81-2.32-7.31-6.28-7.68-1.12-.09-2.5-.09-4.13-.09h-6.02v15.55h6.02c1.63,0,3.01,0,4.13-.09,3.96-.37,6.28-2.87,6.28-7.68Z"/>
        <path class="uuid-bcc8c083-70c8-41e7-bd9e-0ca630d95238" d="m706.01,900.79h-45.5v-63.86h44.64v12.96h-29.16v12.4h27.44v12.96h-27.44v12.59h30.02v12.96Z"/>
        <path class="uuid-bcc8c083-70c8-41e7-bd9e-0ca630d95238" d="m766.22,900.79h-16.86c-1.38-4.54-2.24-8.24-2.75-12.77-.78-7.03-3.35-11.11-7.31-11.38-1.72-.09-3.18-.09-4.9-.09h-3.44v24.25h-15.48v-63.86h23.57c3.7,0,6.11.09,9.29.46,8.6,1.11,16.08,5.64,16.08,16.94,0,8.05-4.04,13.42-11.95,15.92,6.19,2.41,8.43,7.31,9.29,15,.77,7.22,2.15,11.75,4.47,15.55Zm-29.68-36.28c1.63,0,3.01,0,4.13-.09,3.96-.37,7.57-1.85,7.57-7.22s-3.18-6.85-7.14-7.22c-1.12-.09-2.5-.09-4.13-.09h-6.02v14.62h5.59Z"/>
        <path class="uuid-bcc8c083-70c8-41e7-bd9e-0ca630d95238" d="m789.6,862.29h26.58v12.96h-26.58v25.55h-15.48v-63.86h44.64v12.96h-29.16v12.4Z"/>
        <path class="uuid-bcc8c083-70c8-41e7-bd9e-0ca630d95238" d="m885.5,868.86c0,20.45-11.87,33.23-30.37,33.23s-30.36-12.77-30.36-33.23,11.87-33.23,30.36-33.23,30.37,12.68,30.37,33.23Zm-15.83,0c0-13.6-5.59-21.01-14.54-21.01s-14.54,7.4-14.54,21.01,5.59,21.01,14.54,21.01,14.54-7.5,14.54-21.01Z"/>
        <path class="uuid-bcc8c083-70c8-41e7-bd9e-0ca630d95238" d="m945.52,900.79h-16.86c-1.38-4.54-2.24-8.24-2.75-12.77-.78-7.03-3.35-11.11-7.31-11.38-1.72-.09-3.18-.09-4.9-.09h-3.44v24.25h-15.48v-63.86h23.57c3.7,0,6.11.09,9.29.46,8.6,1.11,16.08,5.64,16.08,16.94,0,8.05-4.04,13.42-11.96,15.92,6.19,2.41,8.43,7.31,9.29,15,.77,7.22,2.15,11.75,4.47,15.55Zm-29.68-36.28c1.63,0,3.01,0,4.13-.09,3.96-.37,7.57-1.85,7.57-7.22s-3.18-6.85-7.14-7.22c-1.12-.09-2.5-.09-4.13-.09h-6.02v14.62h5.59Z"/>
        <path class="uuid-bcc8c083-70c8-41e7-bd9e-0ca630d95238" d="m1021.29,900.79h-15.48v-26.84c0-5.55,0-13.79.17-20.27-1.03,6.48-2.75,14.62-4.13,20.27l-6.54,26.84h-15.91l-6.62-26.84c-1.38-5.55-3.1-13.79-4.04-20.27.17,6.48.17,14.71.17,20.27v26.84h-15.48v-63.86h24.17l10.06,47.66,10.06-47.66h23.57v63.86Z"/>
        <path class="uuid-bcc8c083-70c8-41e7-bd9e-0ca630d95238" d="m1047.68,884.22l-4.99,16.57h-16.43l21.42-63.86h18.93l21.42,63.86h-16.86l-4.99-16.57h-18.5Zm3.79-12.96h11.01l-5.51-19.62-5.5,19.62Z"/>
        <path class="uuid-bcc8c083-70c8-41e7-bd9e-0ca630d95238" d="m1130.15,900.79l-21.59-42.2c.52,6.48.52,12.12.52,15.83v26.38h-15.48v-63.86h19.27l22.54,44.05c-.43-6.48-.52-13.05-.52-16.75v-27.3h15.48v63.86h-20.21Z"/>
        <path class="uuid-bcc8c083-70c8-41e7-bd9e-0ca630d95238" d="m1215.81,857.94l.08.93h-15.48l-.17-.93c-1.29-6.85-5.16-10.09-11.44-10.09-7.4,0-12.99,6.66-12.99,20.45,0,16.1,6.19,21.57,13.07,21.57,6.02,0,9.89-3.98,11.18-11.01l.17-.93h15.48l-.09.93c-1.46,15.36-12.39,23.23-27.27,23.23-15.91,0-28.73-11.11-28.73-32.76s13.25-33.69,29.33-33.69c16.95,0,25.63,9.72,26.84,22.3Z"/>
        <path class="uuid-bcc8c083-70c8-41e7-bd9e-0ca630d95238" d="m1270.5,900.79h-45.5v-63.86h44.64v12.96h-29.16v12.4h27.44v12.96h-27.44v12.59h30.02v12.96Z"/>
      </g>
    </g>
    <g>
      <path class="uuid-2d720b60-1da7-41a4-8962-c180bffc3290" d="m1372.54,1931.68v-247.81c0-11.3-9.04-20.46-20.2-20.46h-430.08c-11.16,0-20.2,9.16-20.2,20.46v247.81h470.48Z"/>
      <path class="uuid-bcc8c083-70c8-41e7-bd9e-0ca630d95238" d="m1320.17,1619.28h-174.76l-35.45-40.92-35.31,40.92h-184.55c-11.16,0-20.2,9.16-20.2,20.46v595.74c0,11.3,9.04,20.46,20.2,20.46h430.08c11.16,0,20.2-9.16,20.2-20.46v-595.74c0-11.3-9.04-20.46-20.2-20.46Z"/>
      <g>
        <path class="uuid-44a24c0f-690b-4fe1-964e-ff56d34799c9" d="m1134.2,2113.49h-198.14c-6.12,0-11.66,4.64-11.92,10.84-.28,6.5,4.84,11.86,11.19,11.86h198.14c6.12,0,11.66-4.64,11.93-10.84.28-6.5-4.84-11.86-11.19-11.86Z"/>
        <g>
          <path class="uuid-e1e23385-dd6d-454e-a1a7-15e67d98c74d" d="m992.61,2158.78h-57.28c-6.19,0-11.21,5.08-11.21,11.35s5.02,11.35,11.21,11.35h57.28c6.19,0,11.21-5.08,11.21-11.35s-5.02-11.35-11.21-11.35Z"/>
          <path class="uuid-e1e23385-dd6d-454e-a1a7-15e67d98c74d" d="m1143.05,2158.78h-105.9c-6.19,0-11.21,5.08-11.21,11.35s5.02,11.35,11.21,11.35h105.9c6.19,0,11.21-5.08,11.21-11.35s-5.02-11.35-11.21-11.35Z"/>
          <path class="uuid-e1e23385-dd6d-454e-a1a7-15e67d98c74d" d="m1277.54,2158.78h-89.96c-6.19,0-11.21,5.08-11.21,11.35s5.02,11.35,11.21,11.35h89.96c6.19,0,11.21-5.08,11.21-11.35s-5.02-11.35-11.21-11.35Z"/>
        </g>
      </g>
      <g>
        <rect class="uuid-2d720b60-1da7-41a4-8962-c180bffc3290" x="1194.44" y="1830.53" width="41.42" height="214.7"/>
        <rect class="uuid-67139ae8-748f-42d7-97a3-eed7cdfee0ea" x="1238.45" y="1800.65" width="41.42" height="244.58"/>
        <rect class="uuid-2d720b60-1da7-41a4-8962-c180bffc3290" x="1062.41" y="1870.52" width="41.42" height="174.71"/>
        <rect class="uuid-67139ae8-748f-42d7-97a3-eed7cdfee0ea" x="1106.42" y="1861.36" width="41.42" height="183.87"/>
        <rect class="uuid-2d720b60-1da7-41a4-8962-c180bffc3290" x="930.39" y="1934.14" width="41.42" height="111.09"/>
        <rect class="uuid-67139ae8-748f-42d7-97a3-eed7cdfee0ea" x="974.4" y="1893.45" width="41.42" height="151.78"/>
      </g>
      <polygon class="uuid-67139ae8-748f-42d7-97a3-eed7cdfee0ea" points="930.39 1775.15 930.39 1826.15 1238.45 1738.96 1238.45 1753.87 1279.87 1722.17 1238.45 1710.07 1238.45 1724.04 930.39 1775.15"/>
    </g>
  </g>
  <g id="uuid-e86c582a-19ab-44af-9972-f2e3f21dfa38" data-name="Background">
    <path class="uuid-2d720b60-1da7-41a4-8962-c180bffc3290" d="m2625.51,2494.84H374.49c-20.75,0-37.57,16.82-37.57,37.57h0c0,20.75,16.82,37.58,37.57,37.58h2251.02c20.75,0,37.57-16.82,37.57-37.57s-16.82-37.58-37.57-37.58Z"/>
    <path class="uuid-3c90c158-aa56-43e4-bf40-0bbcf7553e15" d="m361.82,2494.84l227.51-112.16h1806.75l242.1,112.16s-1122.39,125.95-2276.36,0Z"/>
  </g>
  <g id="uuid-9dc482d5-2930-426f-ba77-dea02516857e" data-name="Character">
    <g>
      <g id="uuid-fd1f2cd4-8ef9-4e83-b60d-fc7b0ce32ac2" data-name="Hand">
        <path class="uuid-f8d9ecb6-7e73-40a0-98ff-ed50cc9507c3" d="m1480.11,1048.02c7.62-21.36-.54-30.21-4.01-62.83-11.54-.05-8.51,21.12-12.53,29.57-4.73-7.62-9.73-15.49-14.72-23.35-3.09,1.35-7.76,7.64-6.99,9.28-1.25-1.53-11.23,4.48-10.39,6.18-1.25-1.33-9.28,6.28-8.36,7.89-1.64-1.44-13.85,19.57-15.35,21.03,13.87,25.36,25.52,19.03,41.93,46.14.47-.3,34.54-19.45,37.53-20.86-2.34-4.17-7.12-13.06-7.12-13.06Z"/>
        <path class="uuid-0178d8d5-04b5-439d-9237-b1247079544b" d="m1430.21,1025.6c-.31-.48,3.75-3.63,9.06-7.04,5.31-3.41,9.87-5.79,10.18-5.31.31.48-3.75,3.63-9.06,7.04-5.31,3.41-9.87,5.79-10.18,5.31Z"/>
        <path class="uuid-0178d8d5-04b5-439d-9237-b1247079544b" d="m1477.49,1049.19c.18.14-.75,1.84-2.88,4.11-2.09,2.28-5.43,5.07-9.61,7.32-8.39,4.61-16.3,5.15-16.31,4.57-.1-.56,7.32-1.98,15.32-6.39,8.1-4.26,12.97-10.05,13.48-9.62Z"/>
      </g>
      <g>
        <g>
          <path class="uuid-190357c8-d3cf-4530-ad58-aab9beddf82f" d="m1462.46,985l-53.49,58.05c-2.19,2.38-2.04,6.09.34,8.28h0c2.38,2.19,6.09,2.04,8.28-.34l53.49-58.05-8.62-7.94Z"/>
          <path class="uuid-a2d33194-46a0-444e-b6b4-70d71d3095c8" d="m1462.47,985l-53.5,58.05c-2.2,2.38-2.05,6.08.34,8.27,1.52,1.4,3.59,1.84,5.46,1.35-4.55-3.55-1.72-7.74-1.72-7.74l47.15-51.16,6.23,4.2,4.65-5.04-8.61-7.94Z"/>
          <path class="uuid-a2d33194-46a0-444e-b6b4-70d71d3095c8" d="m1408.71,1012.09h54.4c3.18,0,5.76,2.58,5.76,5.76v9.21c0,3.18-2.58,5.76-5.76,5.76h-54.4c-3.18,0-5.76-2.58-5.76-5.76v-9.21c0-3.18,2.58-5.76,5.76-5.76Z" transform="translate(-289.03 1385.52) rotate(-47.34)"/>
        </g>
        <path class="uuid-190357c8-d3cf-4530-ad58-aab9beddf82f" d="m1458.86,986.68c27.66,25.47,70.7,23.73,96.17-3.9,25.44-27.62,23.69-70.7-3.97-96.17-27.62-25.44-70.66-23.69-96.13,3.93-25.47,27.66-23.69,70.66,3.93,96.13Zm7.38-85.71c19.69-21.4,53.02-22.77,74.43-3.04,21.4,19.73,22.73,53.06,3.04,74.42-19.69,21.4-53.02,22.73-74.43,3.01-21.4-19.69-22.77-53.02-3.04-74.39Z"/>
      </g>
      <g>
        <path class="uuid-f8d9ecb6-7e73-40a0-98ff-ed50cc9507c3" d="m1438.03,987.79s-4.87-11.9,12.39-12.57c17.26-.67,19.95,10.58,15.42,13.86-4.53,3.28-7.19,5.73-15.98,2.1,0,0,5.5,6.18.97,10.62-4.53,4.44-10.78,3.62-10.78,3.62,0,0,6.02,4.48,5,7.55-1.02,3.07-8.04,7.26-15.9,4.8,0,0,4.84,6.9-4.54,10.34-9.38,3.45-8.69.26-8.69.26l-7.26,9.15s-8.69-13.34,6.76-23.64c0,0-2.6-11.73,11.5-11.7,0,0-5.09-15.69,11.11-14.39Z"/>
        <g>
          <path class="uuid-0178d8d5-04b5-439d-9237-b1247079544b" d="m1438.12,987.92c.02.73,2.81,1.14,6,2.12,3.22.93,5.69,2.12,6.12,1.61.49-.53-1.74-2.93-5.41-3.99-3.66-1.1-6.76-.37-6.71.27Z"/>
          <path class="uuid-0178d8d5-04b5-439d-9237-b1247079544b" d="m1426.62,1001.95c.1.64,2.9,1.18,6.51,2.33,3.6,1.05,6.65,1.78,6.92,1.14.27-.62-2.42-2.42-6.23-3.53-1.9-.56-3.71-.81-5.06-.73-1.36.07-2.18.46-2.14.79Z"/>
          <path class="uuid-0178d8d5-04b5-439d-9237-b1247079544b" d="m1415.41,1013.89c.08.36.9.49,2.11.77,1.22.3,2.88.79,4.73,1.46,3.69,1.32,6.74,2.6,7.1,2,.36-.56-2.24-2.89-6.27-4.34-2-.73-4-1.02-5.46-.87-1.48.15-2.3.68-2.22.99Z"/>
        </g>
      </g>
      <path class="uuid-f8d9ecb6-7e73-40a0-98ff-ed50cc9507c3" d="m1480.82,1013.39l-4.27-28.2s-4.12.75-5.48,1.9c-1.35,1.15-7.59,27.08-7.59,27.08,0,0-7.2,5.19-7.76,13.25-.56,8.06,25.09-14.02,25.09-14.02Z"/>
      <path class="uuid-0178d8d5-04b5-439d-9237-b1247079544b" d="m1458.64,1038.37c-.12.08-.43-.2-.88-.77-.43-.59-1.15-1.41-1.65-2.65-1.21-2.33-2.05-6.24-.99-10.28,1-4.05,3.4-7.03,5.22-8.87,1.9-1.83,3.36-2.59,3.53-2.37.17.23-.92,1.36-2.44,3.33-1.46,1.98-3.45,4.85-4.32,8.41-.93,3.55-.44,6.93.35,9.25.28,1.21.78,2.09.98,2.78.23.67.31,1.09.19,1.17Z"/>
    </g>
    <path class="uuid-190357c8-d3cf-4530-ad58-aab9beddf82f" d="m1487.39,1051.33l136.65,173.94s69.31,84.57,51.93,137.18c-7.15,21.63-35.81,54.08-82.39,28.94-78.03-155.22-153.51-312.5-153.51-312.5l47.32-27.56Z"/>
    <path class="uuid-190357c8-d3cf-4530-ad58-aab9beddf82f" d="m1737.11,1036.38l-37.09,21.92-110.47,261.52s64.81,67.87,83.23,77.17c18.42,9.3,108.57-155.67,108.57-155.67l-44.23-204.94Z"/>
    <path class="uuid-a2d33194-46a0-444e-b6b4-70d71d3095c8" d="m1781.32,1241.34s-90.17,164.98-108.55,155.64c-18.39-9.27-83.2-77.19-83.2-77.19l77.06-182.77c32.92-17.28,56.51-40,65.85-62.09l48.83,166.41Z"/>
    <g>
      <path class="uuid-f8d9ecb6-7e73-40a0-98ff-ed50cc9507c3" d="m1624.4,2417.09l43.66-37.53,3.12-49.62s50.27-15.07,49.96-13.37c-3.25,17.74-3.75,44.15-5.73,56.24,6.57,9.79-76.24,86.22-91.02,44.28Z"/>
      <path class="uuid-f8d9ecb6-7e73-40a0-98ff-ed50cc9507c3" d="m1672.68,1823.65l-5.28,561.2,51.14-19.34s87.14-415.96,105.43-544.57c-57.8-110.77-151.29,2.7-151.29,2.7Z"/>
      <path class="uuid-0178d8d5-04b5-439d-9237-b1247079544b" d="m1823.95,1820.97c-18.24,128.58-105.44,544.56-105.44,544.56l-2.3.89c-.22,2.37-.52,4.6-.82,6.38,6.6,9.79-76.23,86.24-90.98,44.27l9.49-8.16c17.72-2.37,46.34-26.16,56.65-35.89,32.86-31.01,94.45-360.11,87.19-365.45-7.27-5.26-18.52-27.76.01-35.7,18.46-7.93-12.6-11.86-23.13-13.2-10.6-1.33,23.8-20.47,16.53-41.6-6.6-19.2-53.39-11.79-99.36-2.74l.89-90.68s93.5-113.45,151.26-2.67Z"/>
      <path class="uuid-f8d9ecb6-7e73-40a0-98ff-ed50cc9507c3" d="m2023.62,2427.87l31.05-48.49-11.26-48.43,25.06-32.67s28.04,48.88,29.62,61.03c9.1,7.49-48.28,104.48-74.47,68.54Z"/>
      <path class="uuid-f8d9ecb6-7e73-40a0-98ff-ed50cc9507c3" d="m2017.97,1750.08l-19.26,187.84,98.78,412.86-42.82,28.61s-130.61-296.98-176.37-376.45c-45.76-79.47-21.67-296.2-21.67-296.2,0,0,105.96-28.9,161.34,43.35Z"/>
      <path class="uuid-0178d8d5-04b5-439d-9237-b1247079544b" d="m2092.82,2380.66c-21.73-78.23-103.29-374.61-100.99-401.52,2.67-31.07-7.27-12.53-44.27-6.6-37,5.93,16.54-13.2,26.32-22.47,9.86-9.27-20.39,9.27-52.79,5.93-32.4-3.26,51.61-27.06,33.07-33-16.46-5.26-50.42,7.27-98.99-3.19-11.79-94.02,1.48-213.11,1.48-213.11,0,0,105.96-28.84,161.35,43.38l-19.28,187.82,98.77,412.87-1.63,1.11c1.19,3.04,2,5.64,2.22,7.42,2.45,2,.07,10.6-5.27,21.36Z"/>
      <path class="uuid-190357c8-d3cf-4530-ad58-aab9beddf82f" d="m1935.33,1455.8h-258.31c-1.99,17.9-4.56,37.52-7.95,58.98-19.05,120.75-32.39,354.12-32.39,354.12,0,0,30.48,1.36,175.24,25.78,144.77,24.42,232.39-29.85,232.39-29.85,0,0,0-280.86-64.76-341.91-19.21-18.11-33.53-42.2-44.22-67.12Z"/>
      <path class="uuid-a171388b-811a-4865-8845-775ad09d88f9" d="m1935.33,1455.8h-258.31c-1.99,17.9-4.56,37.52-7.95,58.98-4.1,25.96-7.93,57.15-11.42,90.09,2.57,2.26,5.25,4.41,8.16,6.34,18.05,11.96,39.99,17.17,61.46,17.58,11.35.22,23.08-.65,34.12-3.49,3.11-.8,6.37-2.74,9.65-2.71,4.78.05,10.39,2.75,14.6,4.68,6.8,3.13,12.79,7.71,19.06,11.71,7.12,4.54,14.6,7.61,22.66,10.09,16.58,5.11,33.8,7.82,51.05,9.26,17.04,1.42,34.15,1.64,51.23,1.67,13.3.02,26.69.04,39.33,4.77,18.96,7.09,30.5,23.11,33.76,42.8,3.96,23.9-2.13,46.74-6.93,69.96-2.8,13.53-2.42,26.79,1.86,39.95,4.54,13.95,12,26.72,16.8,40.56,2.13,6.12,3.58,12.5,4.38,18.91,16.63-6.67,25.45-12.12,25.45-12.12,0,0,0-280.86-64.76-341.91-19.21-18.11-33.53-42.2-44.22-67.12Z"/>
      <path class="uuid-a171388b-811a-4865-8845-775ad09d88f9" d="m1774.58,1693.79c-12.99,10.04-29.67,13.98-45.65,16.02-10.71,1.37-21.48,1.74-32.26,1.84,6.57,3.42,13.7,5.86,20.83,7.53,11.39,2.67,23.3,3.73,34.98,2.74,11.23-.96,21.1-5.46,27.57-15.01,5.12-7.57,7.34-16.88,5.85-25.78-2.99,4.81-6.71,9.1-11.32,12.66Z"/>
      <path class="uuid-a171388b-811a-4865-8845-775ad09d88f9" d="m1837.12,1713.75c-29.49,27.47-70.66,34.27-107.29,48.42,11.96,4.63,25.21,5.6,37.96,5.12,24.32-.92,51.98-5.08,70.01-22.97,14.25-14.14,18.84-33.84,17.76-53.26-5.16,8.31-11.27,16.01-18.44,22.69Z"/>
      <path class="uuid-a171388b-811a-4865-8845-775ad09d88f9" d="m1804.44,1823.65c6.5-.92,13.02-1.77,19.52-2.7,16.61-2.39,33.37-5.52,48.29-13.54,11.92-6.39,22.32-15.43,30.09-26.52,12.43-17.73,17.84-38.88,18.73-60.24-3.9,9.84-8.76,19.3-14.81,28.04-24.66,35.59-62.41,57.69-101.82,74.97Z"/>
      <path class="uuid-a2d33194-46a0-444e-b6b4-70d71d3095c8" d="m1629.83,2408.66s4.32,12.92,22.98,5.44c18.66-7.47,58.25-54.61,70.36-50.34,12.11,4.28-8.69,86.46-8.69,86.46l-9.93-3.35-.66-35.6s-22.2,15.04-30.25,28.87c-8.05,13.83-25.57,39.52-64.56,25.09-38.99-14.42,20.76-56.58,20.76-56.58Z"/>
      <path class="uuid-a2d33194-46a0-444e-b6b4-70d71d3095c8" d="m2026.4,2418.23s7.84,11.13,23.58-1.38c15.73-12.51,40.12-69.04,52.95-68.42,12.83.62,16.5,85.31,16.5,85.31l-10.48-.35-10.86-33.91s-16.95,20.78-20.69,36.34c-3.74,15.56-13.14,45.2-54.63,42.57-41.49-2.62,3.63-60.16,3.63-60.16Z"/>
    </g>
    <path class="uuid-190357c8-d3cf-4530-ad58-aab9beddf82f" d="m1759.24,1026.18l-22.13,10.2c-18.24,93.65-42.18,75.47-57.6,134.72-5.04,19.09-1.85,36.59,6.67,64.54-33.63,139.55-64.54,329.95-61.84,336.67,3.2,7.95,131.93,7.04,135.23,4.67,3.3-2.36,1.5-43.45,1.5-43.45,14.98-149.74,1.36-442.9-1.83-507.37Z"/>
    <path class="uuid-190357c8-d3cf-4530-ad58-aab9beddf82f" d="m2023.64,1531.31s-.24-.02-.44-.03c-6.61-34.37-94.89-449.48-125.21-501.93l-30.46-3.4c-13.97,34.91-50.63,78.51-69.75,159.41,2.2,130.92-27.24,381.76-20.45,388.69,6.8,6.93,150.84-.41,175.06-1.63v-30.18l23.35,31s42.49,2.45,47.89-2.86c5.41-5.3,0-39.07,0-39.07Z"/>
    <path class="uuid-a2d33194-46a0-444e-b6b4-70d71d3095c8" d="m2023.71,1531.86l-236.02-129.61c1.93-25.66,3.86-52.42,5.49-78.82l202.87,80.75c14.39,65.33,25.06,115.97,27.14,127.09.22,0,.44.07.44.07,0,0,0,.15.07.52Z"/>
    <polygon class="uuid-bcc8c083-70c8-41e7-bd9e-0ca630d95238" points="1758.19 1496.55 1746.87 1185.09 1759.24 1026.18 1867.54 1025.94 1802.21 1181.26 1777.75 1496.55 1758.19 1496.55"/>
    <path class="uuid-a2d33194-46a0-444e-b6b4-70d71d3095c8" d="m1867.54,1025.94s-34.27,43.54-66.23,118.73c-22.04,51.85-23.37,385.74-23.37,385.74l43.93-292.33-14.73-51.7,34.56-16.6s12.7-101.18,25.83-143.85Z"/>
    <path class="uuid-a2d33194-46a0-444e-b6b4-70d71d3095c8" d="m1761.07,1533.54s.49-275.97.49-361.3c0-41.15,11.92-94.07-3.22-146.06-13.12,49.92-38.03,124.32-38.03,124.32l21.12,30.22-28.76,48.01,48.41,304.82Z"/>
    <g>
      <path class="uuid-a2d33194-46a0-444e-b6b4-70d71d3095c8" d="m1887.98,852.56c13.96,58.69-18.91,42.22-42.23,42.22s-42.22-18.9-42.22-42.22,18.91-42.22,42.22-42.22,36.83,19.54,42.23,42.22Z"/>
      <path class="uuid-bcc8c083-70c8-41e7-bd9e-0ca630d95238" d="m1815.61,819.31s38.61,25.95,40.09,48.7c0,0,4.88-17.88-3.53-35.39-8.41-17.51-36.56-13.3-36.56-13.3Z"/>
      <path class="uuid-a2d33194-46a0-444e-b6b4-70d71d3095c8" d="m1858.79,890.3c0,45.12-36.59,81.71-81.71,81.71s-81.71-36.59-81.71-81.71,36.58-81.71,81.71-81.71,81.71,36.58,81.71,81.71Z"/>
      <path class="uuid-f8d9ecb6-7e73-40a0-98ff-ed50cc9507c3" d="m1771.5,1025.94h80.72s-10.57,45.36-62.77,41.72c0,0-32.59-23.98-17.95-41.72Z"/>
      <path class="uuid-f8d9ecb6-7e73-40a0-98ff-ed50cc9507c3" d="m1821.06,951.74l17.96,77.57s-35.08,41.64-60.43,13.55l.68-54.81,41.79-36.31Z"/>
      <path class="uuid-0178d8d5-04b5-439d-9237-b1247079544b" d="m1778.65,1035.58l.59-47.53,30.62-26.62c2.6,3.04,4.23,7.34,4.67,13.35,2.08,29.36-20.84,50.35-35.89,60.8Z"/>
      <path class="uuid-f8d9ecb6-7e73-40a0-98ff-ed50cc9507c3" d="m1710.61,872.4s-4.56,131.08,47.5,135.19c52.07,4.11,74.91-50.69,74.91-50.69,0,0,9.59,5.93,11.88-3.65,2.28-9.59,13.7-26.5,2.28-32.89-11.42-6.4-14.33-1.69-14.33-1.69l5.65-23.89s-126.52-65.31-127.89-22.38Z"/>
      <path class="uuid-a2d33194-46a0-444e-b6b4-70d71d3095c8" d="m1843.86,943.85l-.41-4.38c0-.06-.61-6.05-4.59-7.31-.51-.16-.8-.71-.64-1.22.16-.51.72-.8,1.22-.64,2.61.82,4.09,2.99,4.92,4.99.72-7.85-6.12-11.52-6.45-11.69-.48-.25-.66-.84-.42-1.32.25-.48.83-.66,1.31-.42.11.06,10.87,5.76,6.53,17.84l-1.48,4.14Z"/>
      <g>
        <path class="uuid-090eaf5d-a619-4bb9-9557-2373e0600a00" d="m1801.33,955.26c.62,3.64-3.35,7.34-8.85,8.27-5.5.93-10.46-1.27-11.07-4.91-.61-3.63,3.35-7.34,8.85-8.26,5.5-.93,10.47,1.27,11.07,4.91Z"/>
        <path class="uuid-090eaf5d-a619-4bb9-9557-2373e0600a00" d="m1723.31,958.25c-.61,3.64,3.35,7.34,8.85,8.27,5.5.93,10.47-1.27,11.07-4.9.62-3.64-3.35-7.34-8.85-8.27-5.5-.93-10.46,1.27-11.07,4.91Z"/>
        <path class="uuid-a2d33194-46a0-444e-b6b4-70d71d3095c8" d="m1767.33,925.21s28.52-1.43,31.4-4.24c2.87-2.81-6.06-8.73-18.63-5.55-12.57,3.18-16.03,9.7-12.76,9.8Z"/>
        <path class="uuid-a2d33194-46a0-444e-b6b4-70d71d3095c8" d="m1721.27,927.16s27.51-1.38,30.28-4.09c2.77-2.71-5.84-8.42-17.97-5.36-12.13,3.07-15.46,9.35-12.31,9.45Z"/>
        <path class="uuid-a2d33194-46a0-444e-b6b4-70d71d3095c8" d="m1762.33,958.56c-4.33,0-6.71-2.34-6.84-2.48-.5-.51-.59-1.28-.22-1.89,2.34-3.8.16-14.05-.88-17.68-.23-.82.24-1.67,1.05-1.9.81-.23,1.67.24,1.9,1.05.39,1.37,3.52,12.73,1.17,18.85,1.26.72,3.9,1.66,7.87.14.79-.3,1.68.1,1.99.89.3.79-.1,1.68-.89,1.98-1.94.74-3.66,1.02-5.16,1.02Z"/>
        <path class="uuid-a2d33194-46a0-444e-b6b4-70d71d3095c8" d="m1742.05,939.66c0,4.79-2.66,8.68-5.94,8.68s-5.94-3.88-5.94-8.68,2.66-8.68,5.94-8.68,5.94,3.88,5.94,8.68Z"/>
        <path class="uuid-a2d33194-46a0-444e-b6b4-70d71d3095c8" d="m1794.65,936.8c0,4.79-2.66,8.68-5.94,8.68s-5.94-3.88-5.94-8.68,2.66-8.68,5.94-8.68,5.94,3.88,5.94,8.68Z"/>
        <path class="uuid-957b737e-d366-4b47-b610-c30cda853008" d="m1776.13,978.45c0,5.44-7.51,9.85-16.79,9.85s-16.79-4.41-16.79-9.85,9.1-2.24,18.37-2.24,15.2-3.2,15.2,2.24Z"/>
      </g>
      <path class="uuid-a2d33194-46a0-444e-b6b4-70d71d3095c8" d="m1734.32,850.89c.31-5.5.04-9.09.04-9.09-54.12,4.8-28.09,60.98-28.09,60.98,18.79-9.39,25.16-29.26,27.23-43.77,14.54,19.91,50,59.87,100.88,60.9l16.44-27.41-116.51-41.61Z"/>
      <path class="uuid-a2d33194-46a0-444e-b6b4-70d71d3095c8" d="m1741.44,842.51c-10.96,3.75-17.82,15.31-22.77,25.08-4.39,8.68-8.58,18.04-9.6,27.78-.8,7.64-.38,15.43.72,23.02,1.21,8.41,3.61,16.56,4.49,25.04,1.09,10.54.79,21.94-5.55,30.9-4.88,6.91-16.88,22.31-15.23,20.45,4.89-5.5,11.1-9.63,15.93-15.18,5.85-6.71,8.55-14.91,9.07-23.73.91-15.24-4.49-29.55-5.66-44.57-.6-7.7-.72-15.94,1.49-23.42,1.04-3.49,2.48-6.92,3.91-10.27,2.57-6.04,5.52-11.97,9.12-17.46,3.7-5.64,8.49-11.68,15.1-13.94,2.33-.8,1.33-4.52-1.02-3.71h0Z"/>
      <path class="uuid-a2d33194-46a0-444e-b6b4-70d71d3095c8" d="m1795.68,875.55c18.39,6,21.23,24.92,26.49,42.18,5.22,17.13,11.42,28.07,15.19,45.51,1.02,4.71,2.09,11.6,6.4,14.57,1.58,1.09-6.65-58.01-17.45-73.66-5.71-8.26-20.22-28.33-29.84-31.47-1.82-.6-2.6,2.27-.79,2.87h0Z"/>
    </g>
    <path class="uuid-190357c8-d3cf-4530-ad58-aab9beddf82f" d="m1898,1029.35l38.1,12.22s192.94,249.76,117.17,380.96c-31.32,54.24-306.41-87.15-306.41-87.15l4.67-79.18,185.44,21.57-22.91-127s-21.58-108.97-16.08-121.42Z"/>
    <g>
      <path class="uuid-67139ae8-748f-42d7-97a3-eed7cdfee0ea" d="m1690.69,1137.01s49.77,223.96,109.17,249.64h-188.64s-108.37-171.78-101.95-239.21l181.42-10.43Z"/>
      <path class="uuid-2d720b60-1da7-41a4-8962-c180bffc3290" d="m1488.4,1158.68s4.82-20.07,25.69-20.87c20.87-.8,176.6-.8,176.6-.8,0,0-24.08,0-26.49,20.87,0,0-102.75-10.43-175.8.8Z"/>
    </g>
    <g id="uuid-1811a6c6-99bd-470f-9d58-07bad50e8883" data-name="Hand">
      <path class="uuid-f8d9ecb6-7e73-40a0-98ff-ed50cc9507c3" d="m1742.72,1241.32c-17.18-11.43-26.24-18.34-34.5-19.03-14.01-1.15-64.1,10.41-64.1,10.41,0,0,.38,7.04,1.97,9.44,2.59,3.9,11.1,5.75,20.53,4.96-6.37,1.74-17.71,6.05-17.71,6.05,0,0,2.54,7.89,4.79,9.7,3.01,2.43,10.66,3.38,16.59,2.69-4.37,1.71-11.94,4.16-11.94,4.16,0,0,3.84,8.55,6.35,10.01,4.76,2.78,14.19,2.03,22.3.89-5.74,1.65-14.83,6.73-14.83,6.73,0,0,4.95,6.93,7.19,8.32,8.7,5.38,39.56-4.33,39.56-4.33,13.78,26.09,24.48,42.77,35.68,35.68,31.62-20.02,9.89-61.07,9.89-61.07,0,0-8.94-16.1-21.78-24.61Z"/>
      <path class="uuid-0178d8d5-04b5-439d-9237-b1247079544b" d="m1701.18,1242.18c-.02.38-1.97.56-5.08.94-3.11.38-7.4.95-12.14,1.71-9.47,1.51-17.15,2.96-17.33,2.27-.18-.67,7.31-3.23,16.93-4.77,4.81-.78,9.24-1.07,12.45-1,3.22.08,5.19.53,5.17.85Z"/>
      <path class="uuid-0178d8d5-04b5-439d-9237-b1247079544b" d="m1703.11,1260.17c.01.66-7.27,1.7-16.28,3.37-9.01,1.58-16.38,2.7-16.53,2.01-.16-.67,7-2.91,16.1-4.51,9.08-1.69,16.7-1.62,16.71-.88Z"/>
      <path class="uuid-0178d8d5-04b5-439d-9237-b1247079544b" d="m1703.11,1277.88c.13.69-4.06,2.07-9.37,3.09-5.3,1.02-9.71,1.29-9.84.61-.13-.69,4.06-2.07,9.37-3.09,5.3-1.02,9.71-1.29,9.84-.61Z"/>
    </g>
    <path class="uuid-a2d33194-46a0-444e-b6b4-70d71d3095c8" d="m1762.75,1257.5l174.23,20.27-28.1-149.65,47.26,153.83s49.56,27.21,50.88,60.25l-62.77-44.29-181.5-40.41Z"/>
  </g>
  <g id="uuid-82408a0f-0474-4ce6-9eed-e66ad775eb34" data-name="Percent">
    <path class="uuid-bcc8c083-70c8-41e7-bd9e-0ca630d95238" d="m1616.18,743.06c0-61.42-49.79-111.21-111.21-111.21s-111.21,49.79-111.21,111.21c0,99.31,112.75,199.51,112.75,199.51,0,0,109.68-94.75,109.68-199.51Z"/>
    <path class="uuid-2d720b60-1da7-41a4-8962-c180bffc3290" d="m1478.31,714.6c12.3,0,21.49,7.51,21.49,21.88s-9.19,21.88-21.49,21.88-21.62-7.51-21.62-21.88,9.32-21.88,21.62-21.88Zm-6.34,21.88c0,6.08,2.33,8.8,6.22,8.8s6.34-2.72,6.34-8.8-2.46-8.93-6.34-8.93-6.22,2.72-6.22,8.93Zm51.27-20.46h21.36l-49.84,91.14h-21.36l49.85-91.14Zm16.57,48.81c12.3,0,21.49,7.38,21.49,21.88s-9.19,21.88-21.49,21.88-21.49-7.51-21.49-21.88,9.19-21.88,21.49-21.88Zm-6.34,21.88c0,6.08,2.33,8.8,6.21,8.8s6.34-2.72,6.34-8.8-2.46-8.93-6.34-8.93-6.21,2.85-6.21,8.93Z"/>
  </g>
</svg>