<svg xmlns="http://www.w3.org/2000/svg" id="uuid-c0ec214b-1695-432f-8bb9-aa2c0bb537ad" data-name="&amp;lt;Layer&amp;gt;" viewBox="0 0 2158.7 1412.62">
  <defs>
    <style>
      .uuid-71719631-d912-4c10-a36b-febbf181d076, .uuid-8d5af7ea-c299-4191-932e-21338290b8aa, .uuid-25b6fbb4-9373-4f71-8faf-a86aef4a6325, .uuid-46a6fc1e-0685-4416-ad3b-85d199ffa4cd {
        fill: #fbb03c;
      }

      .uuid-71719631-d912-4c10-a36b-febbf181d076, .uuid-6f5a9e10-562f-41e8-814e-02019c18034f, .uuid-a6348f50-f9bb-48f6-aa04-8496ebf554a4 {
        stroke-width: 0px;
      }

      .uuid-78c90add-11a6-42cb-bb05-1b44738cd0ba, .uuid-8d5af7ea-c299-4191-932e-21338290b8aa, .uuid-b326d141-221f-45f8-8ef1-6545ae4fac0b, .uuid-430d0a5e-8a4b-4ab5-965c-2572f0b3f401, .uuid-25b6fbb4-9373-4f71-8faf-a86aef4a6325, .uuid-88ad0b8a-ae87-45d9-815e-afce5e937c3d, .uuid-5f3e3265-b326-432c-98a9-75d002caff75, .uuid-9546931e-eae7-475d-af20-9609530d034f, .uuid-46a6fc1e-0685-4416-ad3b-85d199ffa4cd, .uuid-12f9d69b-b7b9-4dad-a275-cf2d1808cb7c {
        stroke: #000;
        stroke-linejoin: round;
      }

      .uuid-78c90add-11a6-42cb-bb05-1b44738cd0ba, .uuid-b326d141-221f-45f8-8ef1-6545ae4fac0b, .uuid-12f9d69b-b7b9-4dad-a275-cf2d1808cb7c {
        fill: #fff;
      }

      .uuid-78c90add-11a6-42cb-bb05-1b44738cd0ba, .uuid-430d0a5e-8a4b-4ab5-965c-2572f0b3f401, .uuid-5f3e3265-b326-432c-98a9-75d002caff75, .uuid-46a6fc1e-0685-4416-ad3b-85d199ffa4cd {
        stroke-width: 5.3px;
      }

      .uuid-8d5af7ea-c299-4191-932e-21338290b8aa, .uuid-b326d141-221f-45f8-8ef1-6545ae4fac0b {
        stroke-width: 8.1px;
      }

      .uuid-a6348f50-f9bb-48f6-aa04-8496ebf554a4, .uuid-430d0a5e-8a4b-4ab5-965c-2572f0b3f401, .uuid-9546931e-eae7-475d-af20-9609530d034f {
        fill: #f65552;
      }

      .uuid-25b6fbb4-9373-4f71-8faf-a86aef4a6325, .uuid-88ad0b8a-ae87-45d9-815e-afce5e937c3d, .uuid-9546931e-eae7-475d-af20-9609530d034f, .uuid-12f9d69b-b7b9-4dad-a275-cf2d1808cb7c {
        stroke-width: 7.39px;
      }

      .uuid-88ad0b8a-ae87-45d9-815e-afce5e937c3d, .uuid-5f3e3265-b326-432c-98a9-75d002caff75 {
        fill: #0f9f9a;
      }
    </style>
  </defs>
  <g>
    <path class="uuid-12f9d69b-b7b9-4dad-a275-cf2d1808cb7c" d="m253.56,51.37h1579.45c18.79,0,34.1,15.26,34.1,34.06v1077.1c0,18.79-15.31,34.1-34.1,34.1H253.56c-18.79,0-34.1-15.31-34.1-34.1V85.43c0-18.79,15.31-34.06,34.1-34.06Zm-17.07,1111.16c0,9.42,7.65,17.07,17.07,17.07h1579.45c9.42,0,17.07-7.65,17.07-17.07V213.32H236.49v949.21Z"/>
    <rect class="uuid-9546931e-eae7-475d-af20-9609530d034f" x="1756.56" y="107.59" width="53.09" height="49.5" rx="14.33" ry="14.33" transform="translate(3566.2 264.69) rotate(180)"/>
    <rect class="uuid-88ad0b8a-ae87-45d9-815e-afce5e937c3d" x="1676.37" y="107.59" width="53.09" height="49.5" rx="14.33" ry="14.33" transform="translate(3405.83 264.69) rotate(180)"/>
    <rect class="uuid-25b6fbb4-9373-4f71-8faf-a86aef4a6325" x="1596.19" y="107.59" width="53.09" height="49.5" rx="14.33" ry="14.33" transform="translate(3245.47 264.69) rotate(180)"/>
  </g>
  <g>
    <path class="uuid-71719631-d912-4c10-a36b-febbf181d076" d="m2060.91,260.33l-4.6,15.7c-.27.92-.99,1.64-1.91,1.91l-15.7,4.59c-2.7.79-2.7,4.61,0,5.4l15.7,4.6c.92.27,1.64.99,1.91,1.91l4.6,15.7c.79,2.7,4.61,2.7,5.4,0l4.6-15.7c.27-.92.99-1.64,1.91-1.91l15.7-4.6c2.7-.79,2.7-4.61,0-5.4l-15.7-4.59c-.92-.27-1.64-.99-1.91-1.91l-4.6-15.7c-.79-2.7-4.61-2.7-5.4,0Z"/>
    <path class="uuid-71719631-d912-4c10-a36b-febbf181d076" d="m1957.63,181.44l-7.38,25.24c-.43,1.48-1.59,2.64-3.07,3.07l-25.23,7.38c-4.34,1.27-4.34,7.42,0,8.68l25.23,7.38c1.48.43,2.64,1.59,3.07,3.07l7.38,25.23c1.27,4.34,7.42,4.34,8.69,0l7.38-25.23c.43-1.48,1.59-2.64,3.07-3.07l25.24-7.38c4.34-1.27,4.34-7.42,0-8.68l-25.24-7.38c-1.48-.43-2.64-1.59-3.07-3.07l-7.38-25.24c-1.27-4.34-7.42-4.34-8.69,0Z"/>
  </g>
  <g>
    <path class="uuid-71719631-d912-4c10-a36b-febbf181d076" d="m29.64,345.25l4.6,15.7c.27.92.99,1.64,1.91,1.91l15.7,4.6c2.7.79,2.7,4.61,0,5.4l-15.7,4.59c-.92.27-1.64.99-1.91,1.91l-4.6,15.7c-.79,2.7-4.61,2.7-5.4,0l-4.6-15.7c-.27-.92-.99-1.64-1.91-1.91l-15.7-4.59c-2.7-.79-2.7-4.61,0-5.4l15.7-4.6c.92-.27,1.64-.99,1.91-1.91l4.6-15.7c.79-2.7,4.61-2.7,5.4,0Z"/>
    <path class="uuid-71719631-d912-4c10-a36b-febbf181d076" d="m74.6,452.97l4.59,15.7c.27.92.99,1.64,1.91,1.91l15.7,4.6c2.7.79,2.7,4.61,0,5.4l-15.7,4.6c-.92.27-1.64.99-1.91,1.91l-4.59,15.7c-.79,2.7-4.61,2.7-5.4,0l-4.6-15.7c-.27-.92-.99-1.64-1.91-1.91l-15.7-4.6c-2.7-.79-2.7-4.61,0-5.4l15.7-4.6c.92-.27,1.64-.99,1.91-1.91l4.6-15.7c.79-2.7,4.61-2.7,5.4,0Z"/>
    <path class="uuid-71719631-d912-4c10-a36b-febbf181d076" d="m136.92,262.02l7.38,25.24c.43,1.48,1.59,2.64,3.07,3.07l25.23,7.38c4.34,1.27,4.34,7.42,0,8.69l-25.23,7.38c-1.48.43-2.64,1.59-3.07,3.07l-7.38,25.23c-1.27,4.34-7.42,4.34-8.69,0l-7.38-25.23c-.43-1.48-1.59-2.64-3.07-3.07l-25.23-7.38c-4.34-1.27-4.34-7.42,0-8.69l25.23-7.38c1.48-.43,2.64-1.59,3.07-3.07l7.38-25.24c1.27-4.34,7.42-4.34,8.69,0Z"/>
  </g>
  <g>
    <path class="uuid-12f9d69b-b7b9-4dad-a275-cf2d1808cb7c" d="m2055.2,401.18c-3.03,18.89-20.79,31.75-39.68,28.73-18.89-3.02-31.75-20.79-28.73-39.68,3.02-18.89,20.79-31.75,39.68-28.73,18.89,3.03,31.75,20.79,28.73,39.68Z"/>
    <path class="uuid-12f9d69b-b7b9-4dad-a275-cf2d1808cb7c" d="m2038.17,493.57c-1.5,9.37-10.32,15.75-19.69,14.25-9.37-1.5-15.75-10.32-14.25-19.69,1.5-9.37,10.32-15.75,19.69-14.25,9.37,1.5,15.75,10.32,14.25,19.69Z"/>
    <path class="uuid-12f9d69b-b7b9-4dad-a275-cf2d1808cb7c" d="m2084.67,448.52c-1.5,9.37-10.32,15.75-19.69,14.25-9.37-1.5-15.75-10.32-14.25-19.69,1.5-9.37,10.32-15.75,19.69-14.25,9.37,1.5,15.75,10.32,14.25,19.69Z"/>
  </g>
  <g>
    <path class="uuid-25b6fbb4-9373-4f71-8faf-a86aef4a6325" d="m1126.98,318.93c-4.27-1.09-8.51-1.64-12.58-1.64-8.68,0-16.85,2.4-25.09,7.4-11.89,7-19.32,17.03-22.72,30.66l-151.29,604.78c-3.41,13.64-1.56,26.06,5.75,38.09,6.98,11.83,16.95,19.13,30.92,22.41,3.67,1.02,7.62,1.53,11.75,1.53,11.48,0,21.39-3.4,30.39-10.47,9.17-7.04,15.09-15.97,18.04-27.16l151.26-605.05c3.21-13.47,1.33-25.84-5.66-37.7-7.27-11.96-17.33-19.44-30.77-22.86Z"/>
    <path class="uuid-25b6fbb4-9373-4f71-8faf-a86aef4a6325" d="m865.4,561.92c3.62-13.46,2.07-25.92-4.66-37.9-7.04-11.95-17-19.52-30.46-23.16-4.67-1.26-9.27-1.9-13.69-1.9-8.32,0-16.15,2.17-23.96,6.63l-211.97,120.96c-16.8,9.57-24.96,23.75-24.96,43.36s8.16,33.41,24.98,42.99l211.85,121.28c7.67,4.27,15.78,6.34,24.78,6.34,19.4,0,33.6-8.19,43.32-24.91,6.84-12.17,8.39-24.63,4.77-38.09-3.61-13.37-11.25-23.17-23.42-30.01l-135.96-77.57,136.02-78.04c12.11-6.79,19.74-16.6,23.36-29.97Z"/>
    <path class="uuid-25b6fbb4-9373-4f71-8faf-a86aef4a6325" d="m1497.9,626.54l-211.89-120.92c-7.99-4.48-15.96-6.66-24.36-6.66-4.45,0-9.07.64-13.73,1.9-13.41,3.62-23.22,11.16-29.97,22.97-6.85,12.18-8.41,24.64-4.77,38.09,3.61,13.38,11.25,23.18,23.44,30.02l135.94,77.99-136.02,77.6c-12.11,6.8-19.74,16.61-23.35,29.98-3.64,13.45-2.08,25.91,4.74,38.04,9.57,16.8,23.75,24.96,43.35,24.96,9,0,17.11-2.07,24.67-6.27l211.97-121.35c16.8-9.57,24.96-23.63,24.96-42.98s-8.16-33.79-24.97-43.36Z"/>
  </g>
  <g>
    <path class="uuid-12f9d69b-b7b9-4dad-a275-cf2d1808cb7c" d="m392.85,4.17h570.79c14.97,0,27.11,12.14,27.11,27.11v257.88c0,14.93-12.11,27.04-27.04,27.04h-73.13l12.02,67.65c1.82,10.23-9.61,17.56-18.15,11.65l-114.56-79.31h-377.11c-14.93,0-27.04-12.11-27.04-27.04V31.28c0-14.97,12.14-27.11,27.11-27.11Z"/>
    <g>
      <path class="uuid-a6348f50-f9bb-48f6-aa04-8496ebf554a4" d="m426.07,93.06h497.07c2.05,0,3.7-1.66,3.7-3.7s-1.66-3.7-3.7-3.7h-497.07c-2.05,0-3.7,1.66-3.7,3.7s1.66,3.7,3.7,3.7Z"/>
      <path class="uuid-a6348f50-f9bb-48f6-aa04-8496ebf554a4" d="m709.96,160.8h213.18c2.05,0,3.7-1.66,3.7-3.7s-1.66-3.7-3.7-3.7h-213.18c-2.05,0-3.7,1.66-3.7,3.7s1.66,3.7,3.7,3.7Z"/>
      <path class="uuid-a6348f50-f9bb-48f6-aa04-8496ebf554a4" d="m580.03,160.8h67.74c2.05,0,3.7-1.66,3.7-3.7s-1.66-3.7-3.7-3.7h-67.74c-2.05,0-3.7,1.66-3.7,3.7s1.66,3.7,3.7,3.7Z"/>
      <path class="uuid-a6348f50-f9bb-48f6-aa04-8496ebf554a4" d="m426.07,160.8h108.7c2.05,0,3.7-1.66,3.7-3.7s-1.66-3.7-3.7-3.7h-108.7c-2.05,0-3.7,1.66-3.7,3.7s1.66,3.7,3.7,3.7Z"/>
      <path class="uuid-a6348f50-f9bb-48f6-aa04-8496ebf554a4" d="m656.25,234.71h266.89c2.05,0,3.7-1.66,3.7-3.7s-1.66-3.7-3.7-3.7h-266.89c-2.05,0-3.7,1.66-3.7,3.7s1.66,3.7,3.7,3.7Z"/>
    </g>
  </g>
  <g>
    <ellipse class="uuid-6f5a9e10-562f-41e8-814e-02019c18034f" cx="1944.27" cy="1258.88" rx="214.43" ry="45.81"/>
    <rect class="uuid-6f5a9e10-562f-41e8-814e-02019c18034f" x="1963.37" y="348.34" width="23.96" height="415.64" transform="translate(-10.71 1072.78) rotate(-30.31)"/>
    <path class="uuid-8d5af7ea-c299-4191-932e-21338290b8aa" d="m1696.11,587.99c-21.99,21.99-57.65,21.99-79.64,0-21.99-21.99-21.99-57.65,0-79.64l79.64,79.64Z"/>
    <path class="uuid-b326d141-221f-45f8-8ef1-6545ae4fac0b" d="m1788.07,514.59l-98.19-98.19,112.55-112.55c24.81-24.81,65.04-24.81,89.85,0l8.34,8.34c24.81,24.81,24.81,65.04,0,89.85l-112.55,112.55Z"/>
    <path class="uuid-b326d141-221f-45f8-8ef1-6545ae4fac0b" d="m1771.71,655.5c-2.12,2.29-5.7,2.39-7.88.2l-215.06-215.06c-2.2-2.2-2.08-5.76.2-7.88,61.79-57.54,158.56-56.22,218.76,3.98,60.2,60.2,61.53,156.97,3.98,218.76Z"/>
    <path class="uuid-b326d141-221f-45f8-8ef1-6545ae4fac0b" d="m2131.05,1249.14v.03c0,7.09-12.66,13.62-34.19,19-33.82,8.39-89.57,13.93-152.62,13.93s-118.77-5.54-152.59-13.93c-21.53-5.37-34.19-11.91-34.19-19v-.03c0-87.59,60.31-161.11,141.67-181.27,14.44-3.59,29.57-5.51,45.15-5.51s30.7,1.92,45.15,5.51c81.36,20.16,141.63,93.68,141.63,181.27Z"/>
    <path class="uuid-6f5a9e10-562f-41e8-814e-02019c18034f" d="m1989.42,1067.87c-.92,1.34-3.77,2.57-8.01,3.63-8.21,2.05-21.8,3.39-37.14,3.39s-28.92-1.34-37.14-3.39c-4.24-1.06-7.08-2.29-8.01-3.63,14.44-3.59,29.57-5.51,45.15-5.51s30.7,1.92,45.15,5.51Z"/>
    <path class="uuid-6f5a9e10-562f-41e8-814e-02019c18034f" d="m1962.07,1065.51c-4.65,3.03-20.6,2.24-25.1-.58-.17-.11-.22-.33-.15-.52l132.38-334.5,22.28,8.82-129.24,326.56c-.04.09-.09.16-.17.22Z"/>
    <circle class="uuid-b326d141-221f-45f8-8ef1-6545ae4fac0b" cx="2080.22" cy="735.58" r="29.81"/>
  </g>
  <g>
    <path class="uuid-6f5a9e10-562f-41e8-814e-02019c18034f" d="m879.3,1382.85c0,13.04-61.5,23.6-137.36,23.6s-137.36-10.57-137.36-23.6,61.5-23.61,137.36-23.61,137.36,10.57,137.36,23.61Z"/>
    <g>
      <path class="uuid-6f5a9e10-562f-41e8-814e-02019c18034f" d="m696.15,925.07c0-10.95-3.52-16.45-6.93-21.77-2.59-4.05-5.04-7.95-5.8-14.49h-5.47c.8,8.14,3.79,12.86,6.71,17.42,3.12,4.88,6.07,9.49,6.07,18.85s-2.95,13.97-6.07,18.85c-3.41,5.32-6.93,10.83-6.93,21.78s3.52,16.46,6.93,21.78c3.12,4.88,6.07,9.49,6.07,18.86s-2.95,13.98-6.07,18.86c-3.41,5.32-6.93,10.83-6.93,21.78s3.52,16.46,6.93,21.78c3.12,4.88,6.07,9.49,6.07,18.86h5.42c0-10.95-3.52-16.46-6.93-21.78-3.12-4.88-6.07-9.49-6.07-18.86s2.95-13.98,6.07-18.86c3.41-5.32,6.93-10.83,6.93-21.78s-3.52-16.46-6.93-21.78c-3.12-4.88-6.07-9.49-6.07-18.86s2.95-13.98,6.07-18.86c3.41-5.32,6.93-10.83,6.93-21.78Z"/>
      <path class="uuid-6f5a9e10-562f-41e8-814e-02019c18034f" d="m753.86,925.07c0-10.95-3.52-16.45-6.93-21.77-2.59-4.05-5.04-7.95-5.8-14.49h-5.47c.8,8.14,3.79,12.86,6.71,17.42,3.12,4.88,6.07,9.49,6.07,18.85s-2.95,13.97-6.07,18.85c-3.41,5.32-6.93,10.83-6.93,21.78s3.52,16.46,6.93,21.78c3.12,4.88,6.07,9.49,6.07,18.86s-2.95,13.98-6.07,18.86c-3.41,5.32-6.93,10.83-6.93,21.78s3.52,16.46,6.93,21.78c3.12,4.88,6.07,9.49,6.07,18.86h5.42c0-10.95-3.52-16.46-6.93-21.78-3.12-4.88-6.07-9.49-6.07-18.86s2.95-13.98,6.07-18.86c3.41-5.32,6.93-10.83,6.93-21.78s-3.52-16.46-6.93-21.78c-3.12-4.88-6.07-9.49-6.07-18.86s2.95-13.98,6.07-18.86c3.41-5.32,6.93-10.83,6.93-21.78Z"/>
      <path class="uuid-6f5a9e10-562f-41e8-814e-02019c18034f" d="m811.57,925.07c0-10.95-3.52-16.45-6.93-21.77-2.59-4.05-5.03-7.95-5.8-14.49h-5.47c.8,8.14,3.79,12.86,6.71,17.42,3.12,4.88,6.07,9.49,6.07,18.85s-2.95,13.97-6.07,18.85c-3.41,5.32-6.93,10.83-6.93,21.78s3.52,16.46,6.93,21.78c3.12,4.88,6.07,9.49,6.07,18.86s-2.95,13.98-6.07,18.86c-3.41,5.32-6.93,10.83-6.93,21.78s3.52,16.46,6.93,21.78c3.12,4.88,6.07,9.49,6.07,18.86h5.42c0-10.95-3.52-16.46-6.93-21.78-3.12-4.88-6.07-9.49-6.07-18.86s2.95-13.98,6.07-18.86c3.41-5.32,6.93-10.83,6.93-21.78s-3.52-16.46-6.93-21.78c-3.12-4.88-6.07-9.49-6.07-18.86s2.95-13.98,6.07-18.86c3.41-5.32,6.93-10.83,6.93-21.78Z"/>
    </g>
    <g>
      <path class="uuid-78c90add-11a6-42cb-bb05-1b44738cd0ba" d="m882.1,1332.75c6.94,0,13.94-1.17,20.54-3.93,16.13-6.75,35.36-25.15,35.36-74.47s-19.23-67.73-35.36-74.47c-24.01-10.04-53.38.97-65.36,12.77l-2.39,2.36v118.68l2.39,2.36c8.68,8.56,26.52,16.71,44.82,16.71Zm-.12-140.81c4.9,0,9.83.8,14.46,2.74,16.68,6.98,25.5,27.61,25.5,59.67s-8.82,52.69-25.51,59.67c-16.31,6.83-36.36-.41-45.5-7.35v-104.64c6.55-4.97,18.69-10.09,31.04-10.09Z"/>
      <g>
        <path class="uuid-78c90add-11a6-42cb-bb05-1b44738cd0ba" d="m853.62,1126.16c-.02,10.6-48.88,19.23-109.12,19.23s-109.1-8.64-109.1-19.24c0,0,0,0,0,0s0,0,0,0v246.34c0,10.6,48.86,19.24,109.1,19.24s109.12-8.64,109.12-19.24c0-.26,0-246.32,0-246.32Z"/>
        <polygon class="uuid-78c90add-11a6-42cb-bb05-1b44738cd0ba" points="853.62 1126.15 853.62 1126.14 853.62 1126.14 853.62 1126.15"/>
      </g>
      <path class="uuid-78c90add-11a6-42cb-bb05-1b44738cd0ba" d="m853.63,1126.17c0,4.14-7.39,7.95-19.98,11.09-19.75,4.92-52.32,8.14-89.16,8.14s-69.38-3.22-89.13-8.14c-12.59-3.14-19.98-6.95-19.98-11.09,0-10.61,48.87-19.25,109.11-19.25s109.14,8.64,109.14,19.25Z"/>
      <path class="uuid-78c90add-11a6-42cb-bb05-1b44738cd0ba" d="m833.65,1137.25c-19.75,4.92-52.32,8.14-89.16,8.14s-69.38-3.22-89.13-8.14c19.76-4.95,52.32-8.17,89.13-8.17s69.41,3.22,89.16,8.17Z"/>
      <g>
        <path class="uuid-a6348f50-f9bb-48f6-aa04-8496ebf554a4" d="m744.51,1340.35c-31.44,0-57.01-25.58-57.01-57.01,0-21.79,12.13-41.36,31.66-51.07,3.88-1.93,8.6-.35,10.53,3.54,1.93,3.89.35,8.6-3.54,10.54-14.15,7.04-22.94,21.21-22.94,37,0,22.77,18.52,41.3,41.29,41.3s41.29-18.53,41.29-41.3c0-15.79-8.79-29.96-22.94-37-3.89-1.93-5.47-6.65-3.53-10.54,1.93-3.89,6.66-5.46,10.53-3.54,19.53,9.71,31.66,29.28,31.66,51.07,0,31.44-25.57,57.01-57.01,57.01Z"/>
        <path class="uuid-a6348f50-f9bb-48f6-aa04-8496ebf554a4" d="m744.51,1268.88c-4.34,0-7.86-3.52-7.86-7.86v-46.91c0-4.34,3.52-7.86,7.86-7.86s7.86,3.52,7.86,7.86v46.91c0,4.34-3.52,7.86-7.86,7.86Z"/>
      </g>
    </g>
  </g>
  <g>
    <ellipse class="uuid-6f5a9e10-562f-41e8-814e-02019c18034f" cx="1367.42" cy="1381.96" rx="143.53" ry="30.66"/>
    <g>
      <path class="uuid-78c90add-11a6-42cb-bb05-1b44738cd0ba" d="m1216.96,1148.36l52.73,221.33c0,4.09,6.62,7.85,17.89,10.95,17.69,4.86,46.85,8.04,79.82,8.04s62.16-3.18,79.85-8.04c11.27-3.1,17.89-6.86,17.89-10.95l52.73-221.33h-300.91Z"/>
      <path class="uuid-78c90add-11a6-42cb-bb05-1b44738cd0ba" d="m1517.87,1148.36c0,6.3-10.19,12.08-27.54,16.86-27.24,7.48-72.13,12.38-122.93,12.38s-95.65-4.9-122.89-12.38c-17.35-4.77-27.54-10.56-27.54-16.86,0-16.14,67.38-29.28,150.43-29.28s150.48,13.14,150.48,29.28Z"/>
    </g>
    <g>
      <rect class="uuid-6f5a9e10-562f-41e8-814e-02019c18034f" x="1363.13" y="883.33" width="14.82" height="27.28"/>
      <path class="uuid-6f5a9e10-562f-41e8-814e-02019c18034f" d="m1340.54,924.22l14.73,3.75v-7.09h-16.66c-1.26,0-2.28,1.02-2.28,2.27v108.32c0,1.89,1.53,3.42,3.42,3.42h1.48c1.2,0,2.16-.99,2.11-2.19l-3.93-107.58c-.02-.6.54-1.06,1.12-.91Z"/>
      <path class="uuid-5f3e3265-b326-432c-98a9-75d002caff75" d="m1389.39,905.11v272.18c-7.17.2-14.54.32-22,.32-5.31,0-10.53-.04-15.72-.16v-272.34h37.72Z"/>
    </g>
    <g>
      <path class="uuid-430d0a5e-8a4b-4ab5-965c-2572f0b3f401" d="m1482.53,896.48l-1.7,13.09-29.91-3.89,1.7-13.09c.51-3.96,4.14-6.75,8.09-6.23l15.54,2.02c4,.52,6.79,4.14,6.27,8.1Z"/>
      <path class="uuid-46a6fc1e-0685-4416-ad3b-85d199ffa4cd" d="m1462.96,930.13l-25,192.37-6.81,52.3c-4.98.49-10.09.89-15.36,1.22l7.13-54.86,25.08-192.97,14.95,1.94Z"/>
      <path class="uuid-46a6fc1e-0685-4416-ad3b-85d199ffa4cd" d="m1477.91,932.08l-25,192.24-6.32,48.9c-4.94.61-10.09,1.13-15.43,1.58l6.81-52.3,25-192.37,14.95,1.94Z"/>
      <rect class="uuid-78c90add-11a6-42cb-bb05-1b44738cd0ba" x="1453.07" y="903.8" width="22.69" height="30.16" transform="translate(364.55 2252.72) rotate(-82.6)"/>
    </g>
    <g>
      <path class="uuid-430d0a5e-8a4b-4ab5-965c-2572f0b3f401" d="m1257.04,914.44l3.74,12.66-28.92,8.55-3.74-12.66c-1.13-3.83,1.05-7.85,4.88-8.98l15.03-4.44c3.86-1.14,7.88,1.04,9.01,4.87Z"/>
      <path class="uuid-46a6fc1e-0685-4416-ad3b-85d199ffa4cd" d="m1318.6,1176.02c-5.51-.36-10.9-.81-16.08-1.3l-15.11-51.13-49.1-166.19,14.47-4.25,49.87,168.79,15.96,54.09Z"/>
      <path class="uuid-46a6fc1e-0685-4416-ad3b-85d199ffa4cd" d="m1334.61,1176.87c-5.47-.2-10.82-.49-16-.85l-15.96-54.09-49.87-168.79,14.47-4.29,50.81,171.86,16.57,56.15Z"/>
      <rect class="uuid-78c90add-11a6-42cb-bb05-1b44738cd0ba" x="1234.46" y="930.91" width="30.16" height="22.69" transform="translate(-215.79 392.71) rotate(-16.46)"/>
    </g>
  </g>
  <g>
    <path class="uuid-6f5a9e10-562f-41e8-814e-02019c18034f" d="m53.21,1265.74c0,13.07,78.32,23.66,174.94,23.66s174.94-10.59,174.94-23.66-78.32-23.66-174.94-23.66-174.94,10.59-174.94,23.66Z"/>
    <g>
      <path class="uuid-88ad0b8a-ae87-45d9-815e-afce5e937c3d" d="m83.2,927.21C48.53,865.82,4.17,670.02,8.1,670.02c55.63,61.79,122.94,156.24,178.02,256.67l-102.92.53Z"/>
      <path class="uuid-88ad0b8a-ae87-45d9-815e-afce5e937c3d" d="m204.87,926.68c54.5-133.28,103.02-256.68,170.13-362.56,0,126.62-20.22,249.95-47.12,363.08l-123-.53Z"/>
      <path class="uuid-88ad0b8a-ae87-45d9-815e-afce5e937c3d" d="m194.45,430.51c-38.1,147.77-49.04,315.95-60.85,496.17h105.05c-5.25-169.25-19.01-332.45-44.2-496.17Z"/>
      <path class="uuid-88ad0b8a-ae87-45d9-815e-afce5e937c3d" d="m80.42,536.14s0,301.95,14.42,391.07h102.64c-20.28-124.35-68.13-255.28-117.06-391.07Z"/>
      <path class="uuid-88ad0b8a-ae87-45d9-815e-afce5e937c3d" d="m279.97,498.11c22.05,128.2,35.95,280.54,24.43,427.91l-118.28.66c7.39-154.74,42.11-308.69,93.85-428.57Z"/>
      <path class="uuid-88ad0b8a-ae87-45d9-815e-afce5e937c3d" d="m445.41,667.9c-12.67,92.55-39.63,180.96-72.14,258.78h-82.88c41.91-103.12,77.89-185.22,155.02-258.78Z"/>
    </g>
    <g>
      <path class="uuid-12f9d69b-b7b9-4dad-a275-cf2d1808cb7c" d="m228.15,945.96l-191.71,30.1,71.29,289.67c81.57,5.83,161.94,6.25,240.83,0l71.29-289.67-191.71-30.1Z"/>
      <rect class="uuid-12f9d69b-b7b9-4dad-a275-cf2d1808cb7c" x="15.84" y="915.86" width="424.61" height="60.21"/>
    </g>
  </g>
  <path class="uuid-12f9d69b-b7b9-4dad-a275-cf2d1808cb7c" d="m1415.87,411.58c-3.86-.07-7.35-2.07-9.35-5.37l-52.51-86.6-76.69,78.29c-2.17,2.21-5.05,3.41-8.11,3.35-5.66-.09-10.25-4.23-10.92-9.83l-44.78-375.25c-.39-3.25.59-6.36,2.76-8.76,2.18-2.42,5.29-3.77,8.51-3.72,2.16.04,4.27.71,6.09,1.96l312.03,213.19c3.58,2.45,5.39,6.62,4.73,10.9-.66,4.28-3.64,7.72-7.78,8.97l-104.87,31.8,52.51,86.6c1.54,2.55,2,5.54,1.3,8.43-.71,2.89-2.51,5.34-5.05,6.88l-61.9,37.54c-1.8,1.09-3.86,1.65-5.96,1.62h0Z"/>
</svg>