<svg xmlns="http://www.w3.org/2000/svg" xmlns:xlink="http://www.w3.org/1999/xlink" id="uuid-65cc23be-24fa-4029-a208-939dee6bc15f" data-name="‘ëîé_1" viewBox="0 0 500 454.55">
  <defs>
    <style>
      .uuid-85279c10-6c91-40c6-acaf-dcfbd2c1c0b9, .uuid-76bbe85d-4dbd-4d46-8a15-2616df024cf4, .uuid-f8c66ccb-b221-4768-83de-db1b2c0587c6, .uuid-2eac3169-ea2c-470f-87de-bee0103f34fd, .uuid-96f2ed23-ec5e-46f4-8cb9-6d2a1df960aa {
        stroke-width: 0px;
      }

      .uuid-0f431596-97a3-4163-b2c2-d011930b7c42 {
        clip-path: url(#uuid-63004eb9-8287-4c59-accc-b60ffc01b20b);
      }

      .uuid-76bbe85d-4dbd-4d46-8a15-2616df024cf4 {
        fill: none;
      }

      .uuid-1a5cdf8e-7536-4758-a877-78ae06a54d2f {
        clip-path: url(#uuid-ada900c8-faf0-48be-b5fe-4a1d960934d4);
      }

      .uuid-f8c66ccb-b221-4768-83de-db1b2c0587c6 {
        fill: #f65552;
      }

      .uuid-2eac3169-ea2c-470f-87de-bee0103f34fd {
        fill: #fff;
      }

      .uuid-96f2ed23-ec5e-46f4-8cb9-6d2a1df960aa {
        fill: #0f9f9a;
      }
    </style>
    <clipPath id="uuid-63004eb9-8287-4c59-accc-b60ffc01b20b">
      <path class="uuid-76bbe85d-4dbd-4d46-8a15-2616df024cf4" d="m182.02,107.8c0-12.41,3.42-24.7,9.87-35.3,3.62-5.95,8.31-11.24,11.37-17.53.74-1.52,1.39-3.08,1.88-4.7.64-2.13.98-2.63-.74-3.77-3.12-2.06-6.07-3.09-8.38-6.3-2.96-4.12-3.88-9.43-3.54-14.49.23-3.48,1.02-6.89,1.95-10.24.69-2.46.69-5.51,2.09-7.65,2.77-4.23,8.55-5.8,13.34-5.47,5.84.4,11.3,2.92,17,4.27,9.66,2.28,19.81,1.16,29.55-.78,9.74-1.93,19.35-4.66,29.24-5.59,4.93-.46,10.03-.44,14.65,1.32,4.63,1.76,8.72,5.54,9.73,10.39,1.01,4.86-1.16,9.84-3.97,13.94-2.81,4.1-6.31,7.75-8.51,12.21-2.87,5.81-3.23,12.78-1.08,18.88.98,2.79,3.35,4.49,5.25,6.72,2.05,2.4,3.93,4.94,5.62,7.6,6.93,10.86,10.62,23.62,10.62,36.5,0,37.55-30.44,67.98-67.98,67.98s-67.98-30.44-67.98-67.98Z"/>
    </clipPath>
    <clipPath id="uuid-ada900c8-faf0-48be-b5fe-4a1d960934d4">
      <path class="uuid-76bbe85d-4dbd-4d46-8a15-2616df024cf4" d="m181.91,326.67c0-5.47.67-10.93,1.97-16.24.67-2.73,1.85-5.34,2.52-8.05.61-2.49-.06-5.02-.34-7.6-.74-6.92-1.65-13.88-1.93-20.82-.28-6.8,1.82-12.56,5.09-18.46,3.19-5.75,6.91-11.42,8.06-17.89.66-3.68.46-7.54,1.73-11.06,4.1-11.37,19.88-2.92,27.76-1.06,9.66,2.28,19.81,1.16,29.55-.78,9.74-1.93,19.35-4.66,29.24-5.59,4.93-.46,10.03-.44,14.65,1.32,3.5,1.33,6.73,3.8,8.52,7.13,2.13,3.96.54,7.86.21,12.1-.7,9.1.49,18.34,3.52,26.95,1.62,4.58,3.77,9.17,3.63,14.02-.22,7.34-5.6,14.07-2.85,21.36,2.98,7.9,4.63,16.21,4.63,24.67,0,37.55-30.44,67.98-67.98,67.98s-67.98-30.44-67.98-67.98Z"/>
    </clipPath>
  </defs>
  <g>
    <g>
      <path class="uuid-2eac3169-ea2c-470f-87de-bee0103f34fd" d="m438.78,453.62c-.22,0-.43-.08-.6-.22l-49.87-42.72h-138.01c-45.96,0-83.35-37.39-83.35-83.35s37.41-83.39,83.39-83.39h165.36c45.98,0,83.39,37.41,83.39,83.39,0,40.24-28.51,74.53-67.93,81.9l8.54,43.29c.07.39-.1.78-.44.98-.14.09-.31.13-.47.13Z"/>
      <path class="uuid-85279c10-6c91-40c6-acaf-dcfbd2c1c0b9" d="m415.68,244.86c45.54,0,82.46,36.92,82.46,82.46h0c0,40.63-29.41,74.37-68.1,81.16l8.73,44.21-50.14-42.95h-138.35c-45.52,0-82.42-36.9-82.42-82.42h0c0-45.54,36.92-82.46,82.46-82.46h165.36Zm0-1.85h-165.36c-46.49,0-84.32,37.83-84.32,84.32s37.81,84.28,84.28,84.28h137.67l49.62,42.5c.34.3.77.45,1.21.45.32,0,.64-.08.94-.25.68-.4,1.04-1.19.88-1.96l-8.36-42.37c39.38-7.81,67.77-42.26,67.77-82.64,0-46.49-37.82-84.32-84.32-84.32h0Z"/>
    </g>
    <g>
      <g>
        <circle class="uuid-f8c66ccb-b221-4768-83de-db1b2c0587c6" cx="362.03" cy="327.31" r="12.55" transform="translate(-125.41 351.86) rotate(-45)"/>
        <path class="uuid-85279c10-6c91-40c6-acaf-dcfbd2c1c0b9" d="m362.03,340.94c-7.52,0-13.64-6.12-13.64-13.64s6.12-13.64,13.64-13.64,13.64,6.12,13.64,13.64-6.12,13.64-13.64,13.64Zm0-25.11c-6.32,0-11.47,5.15-11.47,11.47s5.15,11.47,11.47,11.47,11.47-5.14,11.47-11.47-5.14-11.47-11.47-11.47Z"/>
      </g>
      <g>
        <circle class="uuid-f8c66ccb-b221-4768-83de-db1b2c0587c6" cx="404.64" cy="327.31" r="12.55" transform="translate(-112.92 381.99) rotate(-45)"/>
        <path class="uuid-85279c10-6c91-40c6-acaf-dcfbd2c1c0b9" d="m404.65,340.94c-7.52,0-13.64-6.12-13.64-13.64s6.12-13.64,13.64-13.64,13.64,6.12,13.64,13.64-6.12,13.64-13.64,13.64Zm0-25.11c-6.32,0-11.47,5.15-11.47,11.47s5.15,11.47,11.47,11.47,11.47-5.14,11.47-11.47-5.14-11.47-11.47-11.47Z"/>
      </g>
      <g>
        <circle class="uuid-f8c66ccb-b221-4768-83de-db1b2c0587c6" cx="447.26" cy="327.31" r="12.55" transform="translate(-100.44 412.13) rotate(-45)"/>
        <path class="uuid-85279c10-6c91-40c6-acaf-dcfbd2c1c0b9" d="m447.27,340.94c-7.52,0-13.64-6.12-13.64-13.64s6.12-13.64,13.64-13.64,13.64,6.12,13.64,13.64-6.12,13.64-13.64,13.64Zm0-25.11c-6.32,0-11.47,5.15-11.47,11.47s5.15,11.47,11.47,11.47,11.47-5.14,11.47-11.47-5.14-11.47-11.47-11.47Z"/>
      </g>
    </g>
  </g>
  <g>
    <g>
      <path class="uuid-2eac3169-ea2c-470f-87de-bee0103f34fd" d="m61.22,234.76c-.16,0-.32-.04-.47-.13-.34-.2-.52-.59-.44-.98l8.54-43.29C29.44,182.99.93,148.7.93,108.46.93,62.48,38.34,25.07,84.32,25.07h165.36c45.98,0,83.39,37.41,83.39,83.39s-37.39,83.35-83.35,83.35H111.7l-49.87,42.72c-.17.15-.39.22-.6.22Z"/>
      <path class="uuid-85279c10-6c91-40c6-acaf-dcfbd2c1c0b9" d="m249.67,26c45.54,0,82.46,36.92,82.46,82.46h0c0,45.52-36.9,82.42-82.42,82.42H111.36l-50.14,42.95,8.73-44.21C31.26,182.83,1.85,149.09,1.85,108.46h0C1.85,62.92,38.77,26,84.32,26h165.36Zm0-1.85H84.32C37.82,24.14,0,61.97,0,108.46,0,148.83,28.38,183.29,67.77,191.1l-8.36,42.37c-.15.78.2,1.56.88,1.96.29.17.61.25.94.25.43,0,.86-.15,1.21-.45l49.62-42.5h137.67c46.47,0,84.28-37.81,84.28-84.28s-37.82-84.32-84.32-84.32h0Z"/>
    </g>
    <g>
      <g>
        <circle class="uuid-96f2ed23-ec5e-46f4-8cb9-6d2a1df960aa" cx="137.97" cy="108.44" r="12.55" transform="translate(-14.74 194.9) rotate(-67.68)"/>
        <path class="uuid-85279c10-6c91-40c6-acaf-dcfbd2c1c0b9" d="m137.98,121.92c-7.43,0-13.48-6.05-13.48-13.48s6.05-13.48,13.48-13.48,13.48,6.05,13.48,13.48-6.05,13.48-13.48,13.48Zm0-25.11c-6.41,0-11.63,5.22-11.63,11.63s5.22,11.63,11.63,11.63,11.63-5.22,11.63-11.63-5.21-11.63-11.63-11.63Z"/>
      </g>
      <g>
        <circle class="uuid-96f2ed23-ec5e-46f4-8cb9-6d2a1df960aa" cx="95.36" cy="108.44" r="12.55" transform="translate(-41.01 155.96) rotate(-67.89)"/>
        <path class="uuid-85279c10-6c91-40c6-acaf-dcfbd2c1c0b9" d="m95.36,121.92c-7.43,0-13.48-6.05-13.48-13.48s6.05-13.48,13.48-13.48,13.48,6.05,13.48,13.48-6.05,13.48-13.48,13.48Zm0-25.11c-6.41,0-11.63,5.22-11.63,11.63s5.22,11.63,11.63,11.63,11.63-5.22,11.63-11.63-5.21-11.63-11.63-11.63Z"/>
      </g>
      <g>
        <circle class="uuid-96f2ed23-ec5e-46f4-8cb9-6d2a1df960aa" cx="52.74" cy="108.44" r="12.55" transform="translate(-61.23 69.05) rotate(-45)"/>
        <path class="uuid-85279c10-6c91-40c6-acaf-dcfbd2c1c0b9" d="m52.74,121.92c-7.43,0-13.48-6.05-13.48-13.48s6.05-13.48,13.48-13.48,13.48,6.05,13.48,13.48-6.05,13.48-13.48,13.48Zm0-25.11c-6.41,0-11.63,5.22-11.63,11.63s5.22,11.63,11.63,11.63,11.63-5.22,11.63-11.63-5.21-11.63-11.63-11.63Z"/>
      </g>
    </g>
  </g>
  <g>
    <g>
      <path class="uuid-2eac3169-ea2c-470f-87de-bee0103f34fd" d="m250,176.71c-38,0-68.91-30.91-68.91-68.91s30.91-68.91,68.91-68.91,68.91,30.91,68.91,68.91-30.91,68.91-68.91,68.91Z"/>
      <path class="uuid-85279c10-6c91-40c6-acaf-dcfbd2c1c0b9" d="m250,39.82c37.54,0,67.98,30.44,67.98,67.98s-30.44,67.98-67.98,67.98-67.98-30.44-67.98-67.98,30.44-67.98,67.98-67.98h0Zm0-1.85c-38.51,0-69.84,31.33-69.84,69.84s31.33,69.84,69.84,69.84,69.83-31.33,69.83-69.84-31.33-69.84-69.83-69.84h0Z"/>
    </g>
    <g class="uuid-0f431596-97a3-4163-b2c2-d011930b7c42">
      <g>
        <g>
          <g>
            <path class="uuid-2eac3169-ea2c-470f-87de-bee0103f34fd" d="m300.53,145.22c-11.07-11.07-27.11-8.68-35.13-16.7-4.95-4.95-5.36-13.17-5.36-18.47h-20.08c0,6.48-.74,13.84-5.36,18.47-8.02,8.02-24.06,5.63-35.13,16.7-5.95,5.95-10.14,15.51-10.14,31.52h121.35c0-16.02-4.19-25.58-10.14-31.52Z"/>
            <path class="uuid-85279c10-6c91-40c6-acaf-dcfbd2c1c0b9" d="m310.68,177.67h-121.35c-.51,0-.93-.41-.93-.93,0-14.65,3.41-25.17,10.42-32.18,6.15-6.15,13.85-8.28,20.65-10.16,5.64-1.56,10.96-3.03,14.48-6.54,4.51-4.51,5.09-11.89,5.09-17.81,0-.51.42-.93.93-.93h20.08c.51,0,.93.41.93.93,0,5.92.58,13.3,5.09,17.81,3.52,3.52,8.84,4.99,14.48,6.54,6.8,1.88,14.5,4.01,20.65,10.16h0c7.01,7.01,10.42,17.54,10.42,32.18,0,.51-.42.93-.93.93Zm-120.42-1.85h119.49c-.14-13.64-3.37-23.44-9.87-29.94h0c-5.81-5.81-12.94-7.78-19.84-9.68-5.88-1.62-11.44-3.16-15.3-7.02-4.75-4.75-5.56-12.09-5.63-18.2h-18.23c-.07,6.11-.88,13.45-5.63,18.2-3.86,3.86-9.42,5.4-15.3,7.02-6.9,1.91-14.03,3.87-19.83,9.68-6.49,6.49-9.73,16.29-9.87,29.94Z"/>
          </g>
          <g>
            <path class="uuid-96f2ed23-ec5e-46f4-8cb9-6d2a1df960aa" d="m267.51,130.28s0,0,0,0l-11.79,17.22-5.72-2.67-6.88,2.16-10.61-16.72c-8.49,5.98-22.87,4.78-33.04,14.95-5.95,5.95-10.14,15.51-10.14,31.52h121.35c0-16.02-4.19-25.58-10.14-31.52-10.17-10.17-24.54-8.98-33.03-14.94Z"/>
            <path class="uuid-85279c10-6c91-40c6-acaf-dcfbd2c1c0b9" d="m310.68,177.67h-121.35c-.51,0-.93-.41-.93-.93,0-14.65,3.41-25.17,10.42-32.18,6.15-6.15,13.85-8.28,20.65-10.16,4.7-1.3,9.15-2.53,12.51-4.9.21-.15.46-.21.71-.15.25.05.47.2.6.41l10.23,16.12,6.2-1.95c.23-.07.46-.05.67.04l5.01,2.33,11.34-16.57c.14-.2.36-.35.6-.39.25-.04.49,0,.7.15,3.37,2.36,7.8,3.59,12.5,4.89,6.8,1.88,14.5,4.01,20.65,10.16,7.01,7.01,10.42,17.54,10.42,32.18,0,.51-.42.93-.93.93Zm-120.42-1.85h119.49c-.14-13.64-3.37-23.44-9.87-29.94-5.81-5.81-12.94-7.78-19.84-9.68-4.51-1.25-8.79-2.43-12.29-4.64l-11.27,16.46c-.25.38-.75.51-1.16.32l-5.4-2.51-6.53,2.05c-.41.13-.84-.03-1.06-.39l-10.1-15.92c-3.49,2.2-7.77,3.39-12.28,4.63-6.9,1.91-14.03,3.87-19.83,9.68-6.49,6.49-9.73,16.29-9.87,29.94Z"/>
          </g>
          <g>
            <g>
              <path class="uuid-2eac3169-ea2c-470f-87de-bee0103f34fd" d="m222.16,75.34c-4.05.81-4.81,5.71-4.19,9.61.84,5.26,4.79,10.51,9.26,8.9,2.27-.82,3.85-7.83,2.65-12.91-.86-3.64-3.14-6.51-7.72-5.6Z"/>
              <path class="uuid-85279c10-6c91-40c6-acaf-dcfbd2c1c0b9" d="m225.58,95.07c-1.05,0-2.1-.3-3.1-.89-2.67-1.58-4.8-5.15-5.43-9.09-.74-4.67.49-9.77,4.92-10.66h0c4.44-.89,7.65,1.4,8.81,6.29,1.19,5.05-.19,12.9-3.24,14-.65.23-1.31.35-1.96.35Zm-3.24-18.82c-3.69.74-3.91,5.72-3.46,8.55.54,3.37,2.36,6.49,4.55,7.78,1.15.68,2.31.81,3.48.39,1.57-.56,3.24-6.86,2.06-11.83-.93-3.95-3.18-5.58-6.64-4.9h0Z"/>
            </g>
            <g>
              <path class="uuid-2eac3169-ea2c-470f-87de-bee0103f34fd" d="m277.84,75.34c4.05.81,4.81,5.71,4.19,9.61-.84,5.26-4.79,10.51-9.26,8.9-2.27-.82-3.85-7.83-2.65-12.91.86-3.64,3.14-6.51,7.72-5.6Z"/>
              <path class="uuid-85279c10-6c91-40c6-acaf-dcfbd2c1c0b9" d="m274.42,95.07c-.65,0-1.31-.12-1.96-.35-3.05-1.1-4.43-8.94-3.24-14,1.16-4.88,4.36-7.17,8.81-6.29,4.43.89,5.67,5.99,4.92,10.66-.63,3.94-2.76,7.51-5.43,9.09-1,.59-2.05.89-3.1.89Zm1.78-18.97c-2.64,0-4.38,1.69-5.17,5.05-1.18,4.97.49,11.26,2.06,11.83,1.16.42,2.34.29,3.49-.39,2.18-1.29,4.01-4.42,4.55-7.78.45-2.83.23-7.81-3.46-8.55h0c-.51-.1-1-.15-1.46-.15Z"/>
            </g>
          </g>
          <g>
            <path class="uuid-2eac3169-ea2c-470f-87de-bee0103f34fd" d="m223.93,81.25c2.73,22.3,18.82,35.7,26.07,35.7,7.25,0,23.34-13.41,26.07-35.7,5.65-46.2-57.8-46.2-52.15,0Z"/>
            <path class="uuid-85279c10-6c91-40c6-acaf-dcfbd2c1c0b9" d="m250,117.88c-7.94,0-24.22-13.87-26.99-36.52h0c-1.71-13.96,2.81-25.45,12.41-31.52,8.72-5.52,20.45-5.52,29.17,0,9.59,6.07,14.12,17.56,12.41,31.52-2.77,22.65-19.05,36.52-26.99,36.52Zm-25.15-36.74c2.61,21.3,17.98,34.89,25.15,34.89,7.17,0,22.55-13.59,25.15-34.89,1.62-13.22-2.6-24.06-11.56-29.73-8.13-5.15-19.06-5.15-27.19,0-8.96,5.67-13.18,16.51-11.56,29.73h0Z"/>
          </g>
          <path class="uuid-85279c10-6c91-40c6-acaf-dcfbd2c1c0b9" d="m274.4,68.23c0,.08-1.46,26.49-7.45,29.92-3.68,2.11.33-6.44-2.85-6.77-6.75-.7-21.32-.71-28.21,0-3.18.33.83,8.88-2.85,6.77-5.99-3.43-7.44-29.83-7.45-29.92-.1-1.4-.33-2.06-.59-2.06-.89,0-2.27,7.39-1.17,18.7,4.21,43.35,48.11,43.3,52.32,0,1.1-11.31-.27-18.7-1.17-18.7-.27,0-.49.66-.59,2.06Z"/>
          <g>
            <path class="uuid-2eac3169-ea2c-470f-87de-bee0103f34fd" d="m237.27,96.94c1.17,6.1,7.72,11.1,12.73,11.1s11.56-5,12.73-11.1h-25.45Z"/>
            <path class="uuid-85279c10-6c91-40c6-acaf-dcfbd2c1c0b9" d="m250,108.97c-5.26,0-12.36-5.18-13.64-11.85-.05-.27.02-.55.2-.76.18-.21.44-.34.72-.34h25.45c.28,0,.54.12.72.34.17.21.25.49.2.76-1.28,6.67-8.38,11.85-13.64,11.85Zm-11.54-11.1c1.63,5.21,7.38,9.25,11.54,9.25s9.91-4.04,11.54-9.25h-23.08Z"/>
          </g>
          <g>
            <polygon class="uuid-f8c66ccb-b221-4768-83de-db1b2c0587c6" points="252.35 152.61 247.65 152.61 244.69 176.74 249.59 176.74 250.41 176.74 255.31 176.74 252.35 152.61"/>
            <path class="uuid-85279c10-6c91-40c6-acaf-dcfbd2c1c0b9" d="m255.31,177.67h-10.63c-.27,0-.52-.11-.69-.31-.18-.2-.26-.46-.23-.73l2.96-24.14c.06-.46.45-.81.92-.81h4.7c.47,0,.86.35.92.81l2.97,24.14c.03.26-.05.53-.23.73-.17.2-.43.31-.69.31Zm-9.58-1.85h8.53l-2.74-22.28h-3.06l-2.74,22.28Z"/>
          </g>
          <g>
            <path class="uuid-f8c66ccb-b221-4768-83de-db1b2c0587c6" d="m250,144.83l-5.72,8.08s-.02,2.81,2.65,5.6h6.15c2.24-2.38,2.65-5.6,2.65-5.6l-5.72-8.08Z"/>
            <path class="uuid-85279c10-6c91-40c6-acaf-dcfbd2c1c0b9" d="m253.07,159.43h-6.15c-.25,0-.49-.1-.67-.29-2.9-3.03-2.91-6.12-2.91-6.24,0-.19.06-.37.17-.53l5.72-8.08c.17-.25.46-.39.76-.39h0c.3,0,.58.15.76.39l5.72,8.08c.13.19.19.42.16.65-.02.14-.47,3.55-2.89,6.12-.17.19-.42.29-.67.29Zm-5.74-1.85h5.33c1.4-1.65,1.92-3.66,2.08-4.45l-4.74-6.7-4.78,6.75c.07.67.41,2.49,2.11,4.4Z"/>
          </g>
          <g>
            <polygon class="uuid-96f2ed23-ec5e-46f4-8cb9-6d2a1df960aa" points="232.49 130.27 250 144.83 243.22 155.72 232.49 130.27"/>
            <path class="uuid-85279c10-6c91-40c6-acaf-dcfbd2c1c0b9" d="m243.22,156.64s-.05,0-.07,0c-.35-.03-.65-.24-.78-.56l-10.73-25.44c-.17-.39-.04-.85.3-1.1.35-.25.82-.24,1.15.03l17.51,14.56c.36.3.44.81.19,1.2l-6.78,10.89c-.17.27-.47.44-.79.44Zm-8.4-23.23l8.56,20.29,5.4-8.68-13.96-11.61Z"/>
          </g>
          <g>
            <polygon class="uuid-96f2ed23-ec5e-46f4-8cb9-6d2a1df960aa" points="267.51 130.27 250 144.83 256.78 155.72 267.51 130.27"/>
            <path class="uuid-85279c10-6c91-40c6-acaf-dcfbd2c1c0b9" d="m256.78,156.64c-.32,0-.62-.16-.79-.44l-6.78-10.89c-.25-.39-.16-.91.19-1.2l17.51-14.56c.33-.27.8-.28,1.15-.03.34.25.47.71.3,1.1l-10.73,25.44c-.13.32-.44.54-.78.56-.02,0-.05,0-.07,0Zm-5.56-11.62l5.41,8.68,8.56-20.29-13.96,11.61Z"/>
          </g>
        </g>
        <g>
          <g>
            <path class="uuid-f8c66ccb-b221-4768-83de-db1b2c0587c6" d="m224.83,62.17c-1.64-11.93,4.02-18.73-1.51-25.66-6.27-7.86-19.66-6.32-20-6.2l-2.57-1.87c13.5-14.58,72.22-18.06,75.17,31.33l-51.09,2.4Z"/>
            <path class="uuid-85279c10-6c91-40c6-acaf-dcfbd2c1c0b9" d="m224.83,63.1c-.46,0-.86-.34-.92-.8-.7-5.11-.1-9.25.42-12.91.72-4.98,1.24-8.58-1.73-12.3-5.96-7.46-18.93-5.91-19.06-5.88-.28.1-.52.03-.76-.15l-2.57-1.87c-.22-.16-.35-.39-.38-.66-.02-.26.06-.53.24-.72,7.98-8.62,30.78-13.3,49.32-6.67,11.72,4.2,26,14.29,27.45,38.57.01.25-.07.49-.23.68-.17.18-.4.29-.65.31l-51.09,2.4h-.04Zm-18.06-33.89c4.69,0,12.67.95,17.28,6.72,3.47,4.35,2.85,8.69,2.12,13.72-.48,3.33-1.02,7.07-.52,11.55l49.29-2.31c-1.69-22.59-15.12-32.04-26.16-35.99-17.33-6.21-38.41-2.28-46.6,5.44l1.42,1.03c.64-.07,1.76-.15,3.18-.15Z"/>
          </g>
          <g>
            <path class="uuid-2eac3169-ea2c-470f-87de-bee0103f34fd" d="m209.01,30.79c0-3.63-2.94-6.58-6.58-6.58s-6.58,2.94-6.58,6.58,2.94,6.58,6.58,6.58,6.58-2.94,6.58-6.58Z"/>
            <path class="uuid-85279c10-6c91-40c6-acaf-dcfbd2c1c0b9" d="m202.44,38.29c-4.14,0-7.5-3.37-7.5-7.5s3.37-7.5,7.5-7.5,7.51,3.37,7.51,7.5-3.37,7.5-7.51,7.5Zm0-13.15c-3.11,0-5.65,2.53-5.65,5.65s2.53,5.65,5.65,5.65,5.65-2.54,5.65-5.65-2.53-5.65-5.65-5.65Z"/>
          </g>
          <g>
            <path class="uuid-2eac3169-ea2c-470f-87de-bee0103f34fd" d="m270.57,53.97c7.25-.03,9.09-1.05,9.15,5.66.14,14.65,3.78,13.01-29.66,12.12-27.68-.73-29.29,3.53-29.57-4.81-.55-16.28-5.86-12.77,50.09-12.97Z"/>
            <path class="uuid-85279c10-6c91-40c6-acaf-dcfbd2c1c0b9" d="m270.12,73.23c-2.72,0-6.17-.11-10.54-.26-2.79-.09-5.95-.19-9.55-.29-9.19-.24-15.6.07-19.84.28-5.39.27-7.84.38-9.26-.93-1.15-1.06-1.3-2.84-1.37-5.06-.05-1.46-.14-2.76-.22-3.91-.25-3.7-.41-6.14,1.15-7.8,2.43-2.57,8.23-2.52,25.45-2.34,6.48.07,14.56.15,24.62.11h0c.92,0,1.75-.02,2.5-.04,3.07-.07,4.92-.11,6.17,1.09,1.14,1.1,1.39,3.01,1.41,5.53.01,1.45.06,2.74.1,3.89.15,3.92.23,6.28-1.32,7.84-1.44,1.45-4.03,1.87-9.31,1.87Zm-26.66-2.49c2.03,0,4.23.03,6.62.09,3.6.1,6.77.2,9.56.29,11.58.38,16.85.55,18.47-1.07.99-.99.91-3.05.78-6.46-.04-1.16-.09-2.47-.11-3.94-.02-2.4-.28-3.66-.84-4.21-.69-.67-2.35-.64-4.84-.57-.76.02-1.6.04-2.54.04h0c-10.05.04-18.15-.05-24.64-.11-15.7-.16-22.21-.23-24.09,1.76-1.01,1.07-.88,3.08-.65,6.4.08,1.17.17,2.49.22,3.97.07,1.99.22,3.24.78,3.76.85.79,3.36.66,7.92.44,3.16-.16,7.53-.37,13.36-.37Z"/>
          </g>
        </g>
      </g>
    </g>
  </g>
  <g>
    <g>
      <path class="uuid-2eac3169-ea2c-470f-87de-bee0103f34fd" d="m249.89,395.58c-38,0-68.91-30.91-68.91-68.91s30.91-68.91,68.91-68.91,68.91,30.91,68.91,68.91-30.91,68.91-68.91,68.91Z"/>
      <path class="uuid-85279c10-6c91-40c6-acaf-dcfbd2c1c0b9" d="m249.89,258.68c37.55,0,67.98,30.44,67.98,67.98s-30.44,67.98-67.98,67.98-67.98-30.44-67.98-67.98,30.44-67.98,67.98-67.98h0Zm0-1.85c-38.51,0-69.84,31.33-69.84,69.84s31.33,69.84,69.84,69.84,69.84-31.33,69.84-69.84-31.33-69.84-69.84-69.84h0Z"/>
    </g>
    <g class="uuid-1a5cdf8e-7536-4758-a877-78ae06a54d2f">
      <g>
        <path class="uuid-85279c10-6c91-40c6-acaf-dcfbd2c1c0b9" d="m309.71,297.92c0-2.32-.79-4.55-1.49-6.77.18-2.35.44-4.7-.08-6.91-.27-1.16-.76-2.26-1.32-3.32-.11-1.19-.3-2.36-.7-3.47-.79-2.17-2.31-4-3.74-5.86-.63-2.25-1.19-4.54-2.44-6.44-.65-.99-1.47-1.85-2.36-2.65-.52-1.09-1.1-2.13-1.86-3.04-1.47-1.75-3.51-2.95-5.48-4.2-1.36-1.91-2.68-3.88-4.52-5.26-.95-.71-2.02-1.24-3.14-1.69-.85-.84-1.75-1.62-2.78-2.21-1.97-1.14-4.29-1.57-6.58-2.08-1.93-1.32-3.84-2.72-6.06-3.39-1.11-.33-2.28-.46-3.47-.5-1.1-.51-2.23-.93-3.42-1.14-2.23-.39-4.57,0-6.91.32-2.3-.58-4.57-1.26-6.83-1.13-1.21.07-2.38.35-3.54.73-1.19-.1-2.36-.11-3.5.09-2.28.4-4.35,1.57-6.41,2.65-2.33.23-4.69.39-6.78,1.29-1.09.47-2.07,1.13-3.02,1.86-1.16.32-2.29.71-3.31,1.31-1.99,1.15-3.53,2.96-5.11,4.69-2.11,1.01-4.27,1.96-5.94,3.53-.86.81-1.57,1.77-2.21,2.79-.98.69-1.9,1.45-2.66,2.35-1.46,1.74-2.29,3.95-3.19,6.11-1.64,1.67-3.36,3.31-4.4,5.37-.53,1.05-.86,2.19-1.11,3.36-.69.99-1.3,2.02-1.7,3.14-.78,2.13-.79,4.5-.89,6.85-.96,2.11-2,4.24-2.28,6.54-.14,1.18-.06,2.37.09,3.55-.3,1.16-.51,2.32-.51,3.52,0,2.32.79,4.55,1.49,6.77-.18,2.35-.44,4.7.08,6.91.27,1.16.76,2.26,1.32,3.32.11,1.19.3,2.36.7,3.47.79,2.17,2.31,4,3.74,5.86.63,2.25,1.19,4.54,2.44,6.44.65.99,1.47,1.85,2.36,2.65.52,1.09,1.1,2.13,1.86,3.04,1.47,1.75,3.51,2.95,5.48,4.2,1.36,1.91,2.68,3.88,4.52,5.26.95.71,2.02,1.24,3.14,1.69.85.84,1.75,1.62,2.78,2.21,1.97,1.14,4.29,1.57,6.58,2.08,1.93,1.32,3.84,2.72,6.06,3.39,1.11.33,2.28.46,3.47.5,1.1.51,2.23.93,3.42,1.14,2.23.39,4.57,0,6.91-.32,2.3.58,4.57,1.26,6.83,1.13,1.21-.07,2.38-.35,3.54-.73,1.19.1,2.36.11,3.5-.09,2.28-.4,4.35-1.57,6.41-2.65,2.33-.23,4.69-.39,6.78-1.29,1.09-.47,2.07-1.13,3.02-1.86,1.16-.32,2.29-.71,3.31-1.31,1.99-1.15,3.53-2.96,5.11-4.69,2.11-1.01,4.27-1.96,5.94-3.53.87-.81,1.57-1.77,2.21-2.79.98-.69,1.9-1.45,2.66-2.35,1.46-1.74,2.29-3.95,3.19-6.11,1.64-1.67,3.36-3.31,4.4-5.37.53-1.05.86-2.19,1.11-3.36.68-.99,1.29-2.02,1.7-3.14.78-2.13.79-4.5.89-6.85.96-2.11,2-4.24,2.28-6.54.14-1.18.06-2.37-.09-3.55.3-1.16.51-2.32.51-3.52Z"/>
        <g>
          <g>
            <path class="uuid-2eac3169-ea2c-470f-87de-bee0103f34fd" d="m296.55,369.52c-10.15-10.15-24.87-7.96-32.23-15.32-4.54-4.54-4.92-12.08-4.92-16.94h-18.42c0,5.94-.67,12.7-4.92,16.94-7.36,7.36-22.07,5.17-32.23,15.32-5.46,5.46-9.3,14.22-9.3,28.92h111.32c0-14.69-3.85-23.46-9.3-28.92Z"/>
            <path class="uuid-85279c10-6c91-40c6-acaf-dcfbd2c1c0b9" d="m305.86,399.52h-111.33c-.6,0-1.09-.49-1.09-1.09,0-13.5,3.15-23.21,9.62-29.69,5.69-5.69,12.79-7.65,19.05-9.38,5.14-1.42,10-2.76,13.18-5.94,4.08-4.08,4.6-10.79,4.6-16.17,0-.6.49-1.09,1.09-1.09h18.42c.6,0,1.09.49,1.09,1.09,0,5.39.52,12.09,4.6,16.17,3.18,3.18,8.04,4.52,13.18,5.94,6.26,1.73,13.36,3.69,19.05,9.38h0c6.48,6.47,9.62,16.18,9.62,29.69,0,.6-.49,1.09-1.09,1.09Zm-110.23-2.17h109.14c-.16-12.33-3.1-21.19-8.98-27.06h0c-5.28-5.28-11.79-7.08-18.09-8.82-5.42-1.5-10.55-2.91-14.14-6.5-4.36-4.36-5.15-11.02-5.23-16.63h-16.26c-.08,5.6-.87,12.27-5.23,16.63-3.59,3.59-8.71,5-14.14,6.5-6.3,1.74-12.81,3.54-18.09,8.82-5.88,5.87-8.82,14.73-8.98,27.06Z"/>
          </g>
          <g>
            <path class="uuid-f8c66ccb-b221-4768-83de-db1b2c0587c6" d="m266.26,355.81c-3.08,3.76-9.12,6.32-16.06,6.32s-12.98-2.56-16.06-6.32h0c-7.79,5.47-20.96,4.38-30.29,13.71-5.46,5.46-9.3,14.22-9.3,28.92h111.32c0-14.69-3.85-23.46-9.3-28.92-9.33-9.33-22.51-8.24-30.29-13.71Z"/>
            <path class="uuid-85279c10-6c91-40c6-acaf-dcfbd2c1c0b9" d="m305.86,399.52h-111.33c-.6,0-1.09-.49-1.09-1.09,0-13.5,3.15-23.21,9.62-29.69,5.69-5.69,12.79-7.65,19.05-9.38,4.29-1.19,8.34-2.3,11.39-4.45.47-.33,1.1-.24,1.46.2,2.99,3.65,8.83,5.92,15.22,5.92s12.23-2.27,15.23-5.92c.36-.44,1-.53,1.46-.2,3.05,2.15,7.1,3.26,11.39,4.45,6.26,1.73,13.36,3.69,19.05,9.38,6.48,6.47,9.62,16.18,9.62,29.69,0,.6-.49,1.09-1.09,1.09Zm-110.23-2.17h109.14c-.16-12.33-3.1-21.19-8.98-27.06-5.28-5.28-11.79-7.08-18.09-8.83-4.12-1.14-8.03-2.22-11.25-4.23-3.53,3.71-9.65,5.98-16.25,5.98s-12.72-2.27-16.25-5.98c-3.22,2.01-7.13,3.09-11.25,4.23-6.3,1.74-12.81,3.54-18.09,8.83-5.88,5.87-8.82,14.73-8.98,27.06Z"/>
          </g>
          <g>
            <g>
              <path class="uuid-2eac3169-ea2c-470f-87de-bee0103f34fd" d="m224.66,305.42c-3.72.74-4.41,5.24-3.84,8.81.77,4.83,4.39,9.64,8.5,8.17,2.08-.75,3.53-7.19,2.43-11.84-.79-3.34-2.88-5.97-7.08-5.13Z"/>
              <path class="uuid-85279c10-6c91-40c6-acaf-dcfbd2c1c0b9" d="m227.79,323.75c-1.01,0-2-.28-2.96-.85-2.51-1.48-4.51-4.82-5.1-8.5-.7-4.39.49-9.2,4.71-10.05h0c4.23-.84,7.26,1.33,8.35,5.95,1.14,4.83-.17,12.05-3.12,13.12-.62.22-1.25.33-1.88.33Zm-2.92-17.27c-3.21.64-3.39,5.06-2.99,7.58.48,3.02,2.12,5.83,4.06,6.98.99.58,1.99.7,3,.34,1.23-.44,2.82-6.01,1.74-10.57-.82-3.48-2.78-4.93-5.81-4.32h0Z"/>
            </g>
            <g>
              <path class="uuid-2eac3169-ea2c-470f-87de-bee0103f34fd" d="m275.74,305.42c3.72.74,4.41,5.24,3.84,8.81-.77,4.83-4.39,9.64-8.5,8.17-2.08-.75-3.53-7.19-2.43-11.84.79-3.34,2.88-5.97,7.08-5.13Z"/>
              <path class="uuid-85279c10-6c91-40c6-acaf-dcfbd2c1c0b9" d="m272.6,323.75c-.63,0-1.26-.11-1.88-.33-2.95-1.06-4.26-8.29-3.12-13.12,1.09-4.62,4.11-6.79,8.35-5.95h0c4.22.84,5.4,5.65,4.71,10.05-.59,3.69-2.59,7.02-5.1,8.51-.95.56-1.95.85-2.96.85Zm1.65-17.4c-2.32,0-3.84,1.49-4.54,4.45-1.08,4.57.51,10.13,1.74,10.57,1,.36,2.01.25,3-.34,1.94-1.15,3.58-3.95,4.06-6.98.4-2.51.22-6.94-2.99-7.58-.45-.09-.87-.14-1.28-.14Z"/>
            </g>
          </g>
          <g>
            <path class="uuid-2eac3169-ea2c-470f-87de-bee0103f34fd" d="m250.2,281.3c-13.2-.44-26.42,9.13-23.92,29.54,2.5,20.45,17.26,32.75,23.92,32.75,6.65,0,21.42-12.3,23.92-32.75,2.5-20.41-10.72-29.98-23.92-29.54Z"/>
            <path class="uuid-85279c10-6c91-40c6-acaf-dcfbd2c1c0b9" d="m250.19,344.67c-7.36,0-22.44-12.8-24.99-33.71-1.47-12.04,2.5-19.24,6.08-23.17,4.63-5.06,11.52-7.82,18.91-7.59,7.43-.2,14.28,2.53,18.91,7.59,3.59,3.92,7.56,11.12,6.08,23.16-2.56,20.91-17.64,33.71-25,33.71Zm-.87-62.31c-6.45,0-12.4,2.49-16.44,6.9-4.71,5.14-6.62,12.55-5.53,21.44,2.53,20.66,17.34,31.8,22.84,31.8s20.32-11.14,22.84-31.8c1.09-8.88-.83-16.3-5.53-21.44-4.21-4.6-10.5-7.11-17.28-6.89h-.07c-.28,0-.56-.01-.83-.01Z"/>
          </g>
          <g>
            <path class="uuid-2eac3169-ea2c-470f-87de-bee0103f34fd" d="m238.52,325.23c1.07,5.59,7.08,10.18,11.67,10.18s10.6-4.59,11.67-10.18h-23.35Z"/>
            <path class="uuid-85279c10-6c91-40c6-acaf-dcfbd2c1c0b9" d="m250.19,336.5c-4.91,0-11.55-4.83-12.74-11.06-.06-.32.02-.65.23-.9s.51-.39.84-.39h23.35c.32,0,.63.14.84.39.21.25.29.58.23.9-1.19,6.23-7.83,11.06-12.74,11.06Zm-10.26-10.18c1.58,4.54,6.6,8.01,10.26,8.01s8.68-3.47,10.26-8.01h-20.52Z"/>
          </g>
        </g>
        <path class="uuid-85279c10-6c91-40c6-acaf-dcfbd2c1c0b9" d="m229.8,294.82c3.25-1.12,5.92-4.62,5.12-8.06,8.1.86,10.63-4.24,10.63-4.24.08.05,5.18,3.59,9.72-.15,2.13,2.84,5.85,4.4,9.37,3.95.24,2.32,2.49,4.24,4.81,4.1-1.75,6.23,3.12,8.6,3.12,8.6,0,0-1.44,5.28,1.85,6.27,1.42.43,1.42-.39,2.36-1.1.95-.72,1.5-1.84,1.88-2.97,1.75-5.08.68-10.86-2.05-15.48-2.74-4.62-7.01-8.18-11.66-10.86-6.89-3.97-15.29-6.18-22.84-3.69-4.87,1.61-8.9,4.98-13.06,7.98-3.38,2.43-7.03,4.79-9.07,8.42-1.66,2.95-2.06,6.59-1.07,9.83,1.08,3.54,3.02,5.11,4.35,6.55.9.98,1.4,1.45,2.72,1.3,3.14-.37,5.61-7.23,3.83-10.45Z"/>
      </g>
      <path class="uuid-f8c66ccb-b221-4768-83de-db1b2c0587c6" d="m299.59,243.34c-.08-1-1.04-1.61-1.95-1.35l-11.59,3.4,4.23-8.57c.37-.74.13-1.68-.59-2.08-.77-.43-1.73-.12-2.11.66l-8.71,17.65-1.14-9.98c-.09-.82-.79-1.48-1.62-1.43-.88.05-1.52.83-1.42,1.69l1.58,13.81-11.36,2.19s-.05.02-.08.02c-.05.01-.1.03-.15.04-.05.02-.09.04-.14.06-.04.02-.09.04-.13.07-.04.03-.08.05-.12.08-.04.03-.08.06-.11.09-.04.03-.07.07-.11.11-.03.04-.06.07-.09.11-.03.04-.06.09-.09.13-.01.02-.03.04-.04.07l-2.95,5.6c-.52-.18-1.04-.35-1.57-.5-3.07-.88-6.26-1.28-9.45-1.3-3.18.02-6.38.42-9.45,1.3-.53.15-1.05.32-1.57.5l-2.95-5.6s-.03-.04-.04-.07c-.03-.05-.06-.09-.09-.13-.03-.04-.06-.08-.09-.11-.03-.04-.07-.07-.11-.11-.04-.03-.07-.06-.11-.09-.04-.03-.08-.06-.13-.08-.04-.02-.08-.05-.13-.07-.04-.02-.09-.04-.14-.06-.05-.02-.1-.03-.15-.04-.03,0-.05-.02-.08-.02l-11.36-2.19,1.58-13.81c.1-.84-.5-1.59-1.34-1.69-.83-.09-1.59.5-1.69,1.34l-1.15,10.06-8.67-17.58c-.36-.74-1.25-1.13-2-.8-.81.35-1.15,1.3-.77,2.08l4.26,8.65-11.59-3.4c-.91-.27-1.86.35-1.95,1.35-.06.73.43,1.38,1.13,1.59l14.24,4.18,3.55,7.19-7.22-1.39c-.71-.14-1.46.22-1.73.89-.38.93.19,1.91,1.12,2.09l22.3,4.3,2.45,4.66c-1.48.67-2.9,1.47-4.24,2.4-1.31.91-2.56,1.93-3.66,3.09-1.1,1.16-2.09,2.43-2.89,3.81-1.02,1.77-1.72,3.72-2,5.7-.05.38.5.51.62.14.59-1.83,1.48-3.53,2.63-5.02.88-1.17,1.9-2.24,3.02-3.18,1.12-.94,2.3-1.8,3.57-2.53,2.53-1.46,5.28-2.54,8.12-3.24,1.42-.35,2.86-.61,4.32-.78,1.45-.18,2.92-.26,4.38-.26,2.93,0,5.86.34,8.7,1.04,2.84.7,5.59,1.78,8.12,3.24,1.27.73,2.45,1.59,3.57,2.53,1.12.94,2.13,2.01,3.02,3.18,1.14,1.49,2.04,3.18,2.62,5.01.12.37.68.24.62-.14-.29-1.98-.98-3.92-2-5.68-.8-1.38-1.79-2.65-2.89-3.81-1.1-1.16-2.35-2.17-3.66-3.09-1.34-.93-2.76-1.73-4.24-2.4l2.46-4.66,22.3-4.3c.83-.16,1.37-.96,1.21-1.78-.16-.83-.96-1.37-1.79-1.21l-7.26,1.4,3.55-7.19,14.24-4.18c.7-.2,1.19-.86,1.13-1.59Z"/>
    </g>
  </g>
</svg>